<?xml version="1.0" encoding="iso-8859-1"?>
<!-- Generator: Adobe Illustrator 19.0.0, SVG Export Plug-In . SVG Version: 6.00 Build 0)  -->
<svg version="1.1" id="Capa_1" xmlns="http://www.w3.org/2000/svg" xmlns:xlink="http://www.w3.org/1999/xlink" x="0px" y="0px"
	 viewBox="0 0 480 480" style="enable-background:new 0 0 480 480;" xml:space="preserve">
<g>
	<g>
		<path d="M480,360V136c-0.026-22.08-17.92-39.974-40-40h-88V0h-16v110.544c-4.505-7.533-9.875-14.513-16-20.8V0h-16v93.064
			c0,2.177,0.887,4.26,2.456,5.768C325.385,116.852,336.069,141.865,336,168c0.048,53.019-42.893,96.039-95.913,96.087
			c-53.019,0.048-96.039-42.893-96.087-95.913c-0.04-44.515,30.527-83.219,73.84-93.495c3.609-0.853,6.159-4.075,6.16-7.784V48h-16
			v12.752C186.991,66.961,168.276,79.22,154.192,96H40c-22.08,0.026-39.974,17.92-40,40v224c0.026,22.08,17.92,39.974,40,40h131.056
			l-16,32H8c-4.418,0-8,3.582-8,8c0,40,42.152,40,56,40h368c13.848,0,56,0,56-40c0-4.418-3.582-8-8-8H324.944l-16-32H440
			C462.08,399.974,479.974,382.08,480,360z M215.615,277.352c8.007,1.774,16.184,2.663,24.385,2.648
			c61.827-0.071,111.93-50.173,112-112v-24h80v192H48V144h82.648C117.287,204.287,155.328,263.991,215.615,277.352z M463.032,448
			c-2.792,9.848-12.448,16-39.032,16H56c-26.584,0-36.24-6.152-39.032-16H463.032z M172.944,432l16-32h102.112l16,32H172.944z
			 M40,384c-13.255,0-24-10.745-24-24V136c0-13.255,10.745-24,24-24h103.008c-2.955,5.123-5.496,10.473-7.6,16H40
			c-4.418,0-8,3.582-8,8v208c0,4.418,3.582,8,8,8h400c4.418,0,8-3.582,8-8V136c0-4.418-3.582-8-8-8h-88v-16h88
			c13.255,0,24,10.745,24,24v224c0,13.255-10.745,24-24,24H40z"/>
	</g>
</g>
<g>
	<g>
		<path d="M240,128c-22.08,0.026-39.974,17.92-40,40c0,22.091,17.909,40,40,40c22.091,0,40-17.909,40-40S262.091,128,240,128z
			 M240,192c-13.255,0-24-10.745-24-24s10.745-24,24-24s24,10.745,24,24S253.255,192,240,192z"/>
	</g>
</g>
<g>
	<g>
		<path d="M272,0v60.68c-5.242-1.541-10.589-2.696-16-3.456V40h-16v24.408c-0.012,4.191,3.213,7.681,7.392,8
			c10.153,0.742,20.122,3.105,29.528,7c4.078,1.701,8.762-0.226,10.463-4.303c0.41-0.984,0.62-2.039,0.617-3.105V0H272z"/>
	</g>
</g>
<g>
	<g>
		<rect x="240" width="16" height="24"/>
	</g>
</g>
<g>
	<g>
		<rect x="208" y="16" width="16" height="16"/>
	</g>
</g>
<g>
	<g>
		<path d="M312,144h-12.672c-0.136-0.328-0.264-0.656-0.4-0.984l8.96-8.96c3.123-3.124,3.123-8.188,0-11.312l-22.632-22.632
			c-3.174-3.001-8.138-3.001-11.312,0l-8.96,8.96l-0.984-0.4V96c0-4.418-3.582-8-8-8h-32c-4.418,0-8,3.582-8,8v12.672l-0.984,0.4
			l-8.96-8.96c-3.124-3.123-8.188-3.123-11.312,0l-22.632,22.632c-3.123,3.124-3.123,8.188,0,11.312l8.96,8.96
			c-0.136,0.328-0.272,0.656-0.4,0.984H168c-4.418,0-8,3.582-8,8v32c0,4.418,3.582,8,8,8h12.672c0.136,0.328,0.264,0.656,0.4,0.984
			l-8.96,8.96c-3.123,3.124-3.123,8.188,0,11.312l22.632,22.632c3.174,3.001,8.138,3.001,11.312,0l8.96-8.96l0.984,0.4V240
			c0,4.418,3.582,8,8,8h32c4.418,0,8-3.582,8-8v-12.672l0.984-0.4l8.96,8.96c3.124,3.123,8.188,3.123,11.312,0l22.632-22.632
			c3.123-3.124,3.123-8.188,0-11.312l-8.96-8.96c0.136-0.328,0.272-0.656,0.4-0.984H312c4.418,0,8-3.582,8-8v-32
			C320,147.582,316.418,144,312,144z M304,176.008h-10.352c-3.539,0.002-6.656,2.328-7.664,5.72
			c-0.931,3.159-2.188,6.213-3.752,9.112c-1.689,3.114-1.129,6.968,1.376,9.472l7.304,7.304L279.6,218.912l-7.304-7.304
			c-2.504-2.505-6.358-3.065-9.472-1.376c-2.899,1.564-5.953,2.821-9.112,3.752c-3.392,1.008-5.718,4.125-5.72,7.664V232H232
			v-10.352c-0.002-3.539-2.328-6.656-5.72-7.664c-3.159-0.931-6.213-2.188-9.112-3.752c-3.114-1.689-6.968-1.129-9.472,1.376
			l-7.304,7.304L189.088,207.6l7.304-7.304c2.505-2.505,3.065-6.358,1.376-9.472c-1.564-2.899-2.821-5.953-3.752-9.112
			c-1.011-3.389-4.128-5.711-7.664-5.712H176v-16h10.352c3.539-0.002,6.656-2.328,7.664-5.72c0.931-3.159,2.188-6.213,3.752-9.112
			c1.689-3.114,1.129-6.968-1.376-9.472l-7.304-7.304L200.4,117.08l7.304,7.304c2.505,2.505,6.358,3.065,9.472,1.376
			c2.899-1.564,5.953-2.821,9.112-3.752c3.386-1.011,5.708-4.123,5.712-7.656V104h16v10.352c0.002,3.539,2.328,6.656,5.72,7.664
			c3.159,0.931,6.213,2.188,9.112,3.752c3.114,1.689,6.968,1.129,9.472-1.376l7.304-7.304L290.92,128.4l-7.304,7.304
			c-2.505,2.504-3.065,6.358-1.376,9.472c1.564,2.899,2.821,5.953,3.752,9.112c1.008,3.392,4.125,5.718,7.664,5.72H304V176.008z"/>
	</g>
</g>
<g>
	<g>
		<path d="M117.656,229.656l-11.312-11.312l-40,40c-3.123,3.124-3.123,8.188,0,11.312l40,40l11.312-11.312L83.312,264
			L117.656,229.656z"/>
	</g>
</g>
<g>
	<g>
		<path d="M413.656,258.344l-40-40l-11.312,11.312L396.688,264l-34.344,34.344l11.312,11.312l40-40
			C416.779,266.532,416.779,261.468,413.656,258.344z"/>
	</g>
</g>
<g>
</g>
<g>
</g>
<g>
</g>
<g>
</g>
<g>
</g>
<g>
</g>
<g>
</g>
<g>
</g>
<g>
</g>
<g>
</g>
<g>
</g>
<g>
</g>
<g>
</g>
<g>
</g>
<g>
</g>
</svg>
