<?xml version="1.0" encoding="iso-8859-1"?>
<!-- Generator: Adobe Illustrator 18.0.0, SVG Export Plug-In . SVG Version: 6.00 Build 0)  -->
<!DOCTYPE svg PUBLIC "-//W3C//DTD SVG 1.1//EN" "http://www.w3.org/Graphics/SVG/1.1/DTD/svg11.dtd">
<svg version="1.1" xmlns="http://www.w3.org/2000/svg" xmlns:xlink="http://www.w3.org/1999/xlink" x="0px" y="0px"
	 viewBox="0 0 48 48" style="enable-background:new 0 0 48 48;" xml:space="preserve">
<g id="Layer_90">
</g>
<g id="Layer_89">
</g>
<g id="Layer_88">
</g>
<g id="Layer_87">
</g>
<g id="Layer_86">
</g>
<g id="Layer_85">
</g>
<g id="Layer_84">
</g>
<g id="Layer_83">
</g>
<g id="Layer_82">
</g>
<g id="Layer_81">
</g>
<g id="Layer_80">
</g>
<g id="Layer_79">
</g>
<g id="Layer_78">
</g>
<g id="Layer_77">
</g>
<g id="Layer_76">
</g>
<g id="Layer_75">
</g>
<g id="Layer_74">
</g>
<g id="Layer_73">
</g>
<g id="Layer_72">
</g>
<g id="Layer_71">
</g>
<g id="Layer_70">
</g>
<g id="Layer_69">
</g>
<g id="Layer_68">
</g>
<g id="Layer_67">
</g>
<g id="Layer_66">
</g>
<g id="Layer_65">
</g>
<g id="Layer_64">
</g>
<g id="Layer_63">
</g>
<g id="Layer_62">
</g>
<g id="Layer_61">
</g>
<g id="Layer_60">
</g>
<g id="Layer_59">
</g>
<g id="Layer_58">
</g>
<g id="Layer_57">
</g>
<g id="Layer_56">
</g>
<g id="Layer_55">
</g>
<g id="Layer_54">
</g>
<g id="Layer_53">
</g>
<g id="Layer_52">
</g>
<g id="Layer_51">
</g>
<g id="Layer_50">
</g>
<g id="Layer_49">
</g>
<g id="Layer_48">
</g>
<g id="Layer_47">
</g>
<g id="Layer_46">
</g>
<g id="Layer_45">
</g>
<g id="Layer_44">
</g>
<g id="Layer_43">
</g>
<g id="Layer_42">
</g>
<g id="Layer_41">
</g>
<g id="Layer_40">
</g>
<g id="Layer_39">
</g>
<g id="Layer_38">
</g>
<g id="Layer_37">
</g>
<g id="Layer_36">
</g>
<g id="Layer_35">
</g>
<g id="Layer_34">
</g>
<g id="Layer_33">
</g>
<g id="Layer_32">
</g>
<g id="Layer_31">
</g>
<g id="Layer_30">
</g>
<g id="Layer_29">
</g>
<g id="Layer_28">
</g>
<g id="Layer_27">
</g>
<g id="Layer_26">
</g>
<g id="Layer_25">
</g>
<g id="Layer_24">
</g>
<g id="Layer_23">
</g>
<g id="Layer_22">
</g>
<g id="Layer_21">
</g>
<g id="Layer_20">
</g>
<g id="Layer_19">
</g>
<g id="Layer_18">
</g>
<g id="Layer_17">
</g>
<g id="Layer_16">
</g>
<g id="Layer_15">
</g>
<g id="Layer_14">
</g>
<g id="Layer_13">
</g>
<g id="Layer_12">
</g>
<g id="Layer_11">
</g>
<g id="Layer_10">
</g>
<g id="Layer_9">
</g>
<g id="Layer_8">
	<g>
		<g>
			<path style="fill:#bf7c37;" d="M31.65,2c2.805,0,6.247,1.979,7.649,4.4l7.649,13.199c1.402,2.421,1.402,6.381,0,8.802
				L39.299,41.6c-1.403,2.421-4.845,4.4-7.649,4.4H16.351c-2.805,0-6.247-1.979-7.649-4.4l-7.65-13.199
				c-1.402-2.421-1.402-6.381,0-8.802L8.702,6.4C10.104,3.979,13.546,2,16.351,2H31.65z"/>
			<path style="fill:#bf7c37;" d="M31.65,2c2.805,0,6.247,1.979,7.649,4.4l7.649,13.199c1.402,2.421,1.402,6.381,0,8.802
				L39.299,41.6c-1.403,2.421-4.845,4.4-7.649,4.4H16.351c-2.805,0-6.247-1.979-7.649-4.4l-7.65-13.199
				c-1.402-2.421-1.402-6.381,0-8.802L8.702,6.4C10.104,3.979,13.546,2,16.351,2H31.65z"/>
		</g>
		<path id="path9-5_3_" style="fill:#FFFFFF;" d="M13.365,22.737c-0.047,0,0.514,1.206,0.529,1.206c1.224,2.22,3.582,3.6,7.56,3.981
			c-0.568,0.431-1.25,1.25-1.345,2.194c-0.714,0.461-2.15,0.614-3.265,0.262c-1.564-0.494-2.163-3.588-4.505-3.147
			c-0.507,0.095-0.406,0.43,0.032,0.714c0.714,0.461,1.386,1.039,1.903,2.269c0.399,0.943,1.235,2.631,3.881,2.631
			c1.049,0,1.785-0.127,1.785-0.127s0.02,2.41,0.02,3.347c0,1.081-1.46,1.386-1.46,1.905c0,0.205,0.484,0.225,0.871,0.225
			c0.767,0,2.363-0.64,2.363-1.763c0-0.892,0.015-3.892,0.015-4.417c0-1.147,0.615-1.511,0.615-1.511s0.076,6.125-0.147,6.946
			c-0.262,0.965-0.735,0.828-0.735,1.259c0,0.641,1.921,0.156,2.558-1.25c0.492-1.094,0.277-7.103,0.277-7.103l0.525-0.011
			c0,0,0.03,2.75,0.011,4.008c-0.018,1.302-0.107,2.949,0.667,3.725c0.508,0.51,2.156,1.407,2.156,0.588
			c0-0.476-0.903-0.866-0.903-2.153V30.59c0.721,0,0.613,1.947,0.613,1.947l0.052,3.621c0,0-0.159,1.319,1.428,1.87
			c0.56,0.197,1.756,0.248,1.813-0.079c0.057-0.329-1.442-0.819-1.456-1.841c-0.009-0.622,0.028-0.986,0.028-3.693
			c0-2.708-0.364-3.708-1.632-4.505c3.911-0.401,6.333-1.369,7.512-3.959c0.092,0.002,0.481-1.21,0.43-1.21
			c0.264-0.978,0.409-2.135,0.435-3.504c-0.007-3.715-1.785-5.029-2.126-5.645c0.504-2.813-0.085-4.092-0.357-4.531
			c-1.008-0.358-3.506,0.922-4.872,1.823c-2.224-0.65-6.928-0.588-8.692,0.168c-3.255-2.329-4.977-1.972-4.977-1.972
			s-1.113,1.993-0.294,4.91c-1.071,1.364-1.869,2.329-1.869,4.887C12.813,20.321,12.983,21.611,13.365,22.737L13.365,22.737z"/>
	</g>
</g>
<g id="Layer_7">
</g>
<g id="Layer_6">
</g>
<g id="Layer_5">
</g>
<g id="Layer_4">
</g>
<g id="Layer_3">
</g>
<g id="Layer_2">
</g>
<g id="Layer_1">
</g>
<g id="nyt_x5F_exporter_x5F_info" style="display:none;">
</g>
</svg>
