<svg xmlns="http://www.w3.org/2000/svg" width="252" height="535" viewBox="0 0 252 535">
  <metadata><?xpacket begin="﻿" id="W5M0MpCehiHzreSzNTczkc9d"?>
<x:xmpmeta xmlns:x="adobe:ns:meta/" x:xmptk="Adobe XMP Core 5.6-c138 79.159824, 2016/09/14-01:09:01        ">
   <rdf:RDF xmlns:rdf="http://www.w3.org/1999/02/22-rdf-syntax-ns#">
      <rdf:Description rdf:about=""/>
   </rdf:RDF>
</x:xmpmeta>
                                                                                                    
                                                                                                    
                                                                                                    
                                                                                                    
                                                                                                    
                                                                                                    
                                                                                                    
                                                                                                    
                                                                                                    
                                                                                                    
                                                                                                    
                                                                                                    
                                                                                                    
                                                                                                    
                                                                                                    
                                                                                                    
                                                                                                    
                                                                                                    
                                                                                                    
                                                                                                    
                           
<?xpacket end="w"?></metadata>
<defs>
    <style>
      .cls-1 {
        fill: #4f5f6c;
        fill-rule: evenodd;
      }
    </style>
  </defs>
  <path id="a7" class="cls-1" d="M254.4,540.609c-10-7.259-20.778-6.027-37.33,6.17s-25.988,35.988-62.322,9.618,6.014,4.439-28.854-20.941-15.706-42.252-9.645-62.474,3.692-29.957-6.118-37.077ZM112,536H268v39H112V536Z"/>
  <path id="a8" class="cls-1" d="M106.875,435.509c-3.821-11.746-13.264-17.076-33.831-16.927s-42.2,13.856-56.08-28.811,2.254,7.123-11.021-33.883,12.156-43.4,28.959-56.2,20.614-22.069,16.867-33.589Z"/>
  <path id="a9" class="cls-1" d="M51.8,264.641c3.821-11.746-.682-21.6-17.409-33.558S-7.9,217.514,5.975,174.847,3.607,181.932,17,140.964,52.371,112.986,73.5,112.5s29.664-5.75,33.411-17.271Z"/>
  <path id="a10" class="cls-1" d="M105.977,94.78c10-7.26,12.16-17.878,5.662-37.371S85.406,21.6,121.74-4.772,115.655-.43,150.594-25.713s45.081-1.864,62.461,10.143S240.437-2.8,250.247-9.925ZM100-41H267V-1H100V-41Z"/>
</svg>
