<?xml version="1.0" encoding="iso-8859-1"?>
<!-- Generator: Adobe Illustrator 19.0.0, SVG Export Plug-In . SVG Version: 6.00 Build 0)  -->
<svg version="1.1" id="Capa_1" xmlns="http://www.w3.org/2000/svg" xmlns:xlink="http://www.w3.org/1999/xlink" x="0px" y="0px"
	 viewBox="0 0 512 512" style="enable-background:new 0 0 512 512;" xml:space="preserve">
<g>
	<g>
		<path d="M424.5,81.836c-5.52,0-10,4.48-10,10c0,5.52,4.48,10,10,10c5.52,0,10-4.48,10-10C434.5,86.315,430.02,81.836,424.5,81.836
			z"/>
	</g>
</g>
<g>
	<g>
		<path d="M476.458,71.761c-23.865-26.823-56.967-41.595-93.208-41.595c-39.629,0-75.791,15.361-104.574,44.423
			C268.667,84.694,261.186,94.79,256,102.802c-5.186-8.011-12.667-18.106-22.676-28.213C204.541,45.526,168.38,30.165,128.75,30.165
			C52.894,30.165,0,93.626,0,169.076c0,101.918,108.004,187.733,249.451,310.316c1.879,1.629,4.214,2.443,6.549,2.443
			c2.335,0,4.67-0.814,6.549-2.443C404.333,356.516,512,270.852,512,169.076C512,132.081,499.378,97.521,476.458,71.761z
			 M256,458.607C122.431,343.023,20,260.007,20,169.076c0-67.79,46.752-118.91,108.75-118.91c34.424,0,64.661,12.786,89.871,38.001
			c19.206,19.21,28.167,38.815,28.255,39.011c1.609,3.587,5.176,5.891,9.109,5.899c0.006,0,0.013,0,0.019,0
			c3.932,0,7.504-2.313,9.121-5.899c0.088-0.196,9.049-19.8,28.255-39.011c25.209-25.216,55.446-38.001,89.871-38.001
			c61.998,0,108.75,51.12,108.75,118.91C492,262.06,382.81,348.872,256,458.607z"/>
	</g>
</g>
<g>
	<g>
		<path d="M459.476,117.461c-2.565-4.892-8.61-6.776-13.5-4.212c-4.891,2.565-6.777,8.609-4.212,13.5
			C448.365,139.336,452,154.368,452,169.076c0,28.896-13.753,59.565-43.282,96.517c-3.448,4.314-2.745,10.607,1.569,14.055
			c4.342,3.47,10.629,2.718,14.055-1.569C456.856,237.391,472,202.754,472,169.076C472,150.932,467.669,133.084,459.476,117.461z"/>
	</g>
</g>
<g>
	<g>
		<path d="M352,221.836h-56v-56c0-5.523-4.477-10-10-10h-60c-5.523,0-10,4.477-10,10v56h-56c-5.523,0-10,4.477-10,10v60
			c0,5.523,4.477,10,10,10h56v56c0,5.523,4.477,10,10,10h60c5.523,0,10-4.477,10-10v-56h56c5.523,0,10-4.477,10-10v-60
			C362,226.313,357.523,221.836,352,221.836z M342,281.835h-56c-5.523,0-10,4.477-10,10v56h-40v-56c0-5.523-4.477-10-10-10h-56v-40
			h56c5.523,0,10-4.477,10-10v-56h40v56c0,5.523,4.477,10,10,10h56V281.835z"/>
	</g>
</g>
<g>
</g>
<g>
</g>
<g>
</g>
<g>
</g>
<g>
</g>
<g>
</g>
<g>
</g>
<g>
</g>
<g>
</g>
<g>
</g>
<g>
</g>
<g>
</g>
<g>
</g>
<g>
</g>
<g>
</g>
</svg>
