<?xml version="1.0" encoding="iso-8859-1"?>
<!-- Generator: Adobe Illustrator 19.0.0, SVG Export Plug-In . SVG Version: 6.00 Build 0)  -->
<svg version="1.1" id="Capa_1" xmlns="http://www.w3.org/2000/svg" xmlns:xlink="http://www.w3.org/1999/xlink" x="0px" y="0px"
	 viewBox="0 0 512.001 512.001" style="enable-background:new 0 0 512.001 512.001;" xml:space="preserve">
<g>
	<g>
		<path d="M309.844,198.59l-29.688-14.394c-0.177-0.086-0.292-0.268-0.292-0.465v-12.434c9.53-7.231,15.7-18.672,15.7-31.531v-8.016
			c0-13.539-6.839-25.507-17.241-32.643c0.794-2.387,1.208-4.899,1.208-7.438c0-12.976-10.557-23.532-23.532-23.532
			s-23.532,10.556-23.532,23.532c0,2.537,0.414,5.05,1.208,7.438c-10.401,7.136-17.24,19.104-17.24,32.643v8.016
			c0,12.858,6.169,24.3,15.7,31.531v12.434c0,0.197-0.114,0.379-0.291,0.465l-29.688,14.394
			c-10.804,5.238-17.785,16.381-17.785,28.388v33.031c0,8.556,6.961,15.516,15.516,15.516h112.226
			c8.556,0,15.516-6.96,15.516-15.516v-33.031C327.629,214.971,320.648,203.828,309.844,198.59z M256,83.139
			c4.704,0,8.532,3.828,8.532,8.532c0,0.48-0.054,0.953-0.133,1.422c-2.708-0.588-5.517-0.906-8.399-0.906
			c-2.883,0-5.692,0.318-8.402,0.907c-0.077-0.466-0.13-0.938-0.13-1.423C247.468,86.965,251.296,83.139,256,83.139z M256,107.187
			c10.513,0,19.501,6.641,23,15.946c-19.406,2.573-32.213-5.356-38.322-10.561C244.882,109.206,250.208,107.187,256,107.187z
			 M231.437,139.767v-8.016h-0.001c0-2.3,0.324-4.524,0.918-6.636c7.559,6.051,20.635,13.545,39.074,13.545
			c2.91,0,5.959-0.195,9.137-0.604v1.711c0,13.545-11.02,24.564-24.564,24.564S231.437,153.311,231.437,139.767z M273.612,197.694
			l3.958,1.919c-4.234,7.811-12.405,12.815-21.57,12.815c-9.045,0-17.308-5.091-21.554-12.823l3.943-1.912
			c5.313-2.576,8.747-8.057,8.747-13.962v-5.414c2.851,0.657,5.816,1.015,8.864,1.015c3.048,0,6.013-0.358,8.865-1.014v5.414
			C264.865,189.637,268.298,195.117,273.612,197.694z M312.629,260.011c0,0.285-0.231,0.516-0.516,0.516h-16.548v-16.548
			c0-4.142-3.358-7.5-7.5-7.5c-4.142,0-7.5,3.358-7.5,7.5v16.548h-49.129v-16.548c0-4.142-3.358-7.5-7.5-7.5
			c-4.142,0-7.5,3.358-7.5,7.5v16.548h-16.548c-0.285,0-0.516-0.231-0.516-0.516v-33.032h-0.001c0-6.298,3.662-12.143,9.329-14.891
			l12.231-5.93c6.733,12.808,20.262,21.271,35.069,21.271c15.003,0,28.373-8.317,35.09-21.26l12.21,5.92
			c5.667,2.748,9.329,8.593,9.329,14.891V260.011z"/>
	</g>
</g>
<g>
	<g>
		<path d="M498.025,192.811l-37.823-16.81c-0.186-0.083-0.307-0.268-0.307-0.472v-15.411c7.408-7.194,12.024-17.249,12.024-28.367
			v-8.016c0-21.816-17.749-39.564-39.564-39.564s-39.564,17.749-39.564,39.564v8.016c0,11.118,4.616,21.172,12.024,28.366v15.412
			c0,0.204-0.121,0.389-0.306,0.472l-37.824,16.811c-8.489,3.773-13.975,12.214-13.975,21.504v45.694
			c0,8.556,6.96,15.516,15.516,15.516h56.116c4.142,0,7.5-3.358,7.5-7.5c0-4.142-3.358-7.5-7.5-7.5h-24.567v-24.565
			c0-4.142-3.358-7.5-7.5-7.5c-4.142,0-7.5,3.358-7.5,7.5v24.564h-16.549c-0.285,0-0.516-0.231-0.516-0.516v-45.694
			c0-3.368,1.989-6.429,5.067-7.797l26.994-11.997l27.784,23.153c1.391,1.159,3.096,1.738,4.801,1.738
			c1.705,0,3.411-0.579,4.801-1.738l27.783-23.153l26.993,11.997c3.078,1.368,5.067,4.429,5.067,7.797v45.694
			c0,0.285-0.231,0.516-0.516,0.516h-16.548v-24.564c0-4.142-3.358-7.5-7.5-7.5c-4.142,0-7.5,3.358-7.5,7.5v24.564h-8.531
			c-4.142,0-7.5,3.358-7.5,7.5c0,4.142,3.358,7.5,7.5,7.5h40.08c8.556,0,15.516-6.96,15.516-15.516v-45.694
			C512,205.025,506.515,196.584,498.025,192.811z M432.355,202.149l-17.888-14.906c3.338-2.901,5.347-7.151,5.347-11.714v-6.262
			c3.944,1.322,8.157,2.049,12.541,2.049c4.383,0,8.596-0.727,12.54-2.049v6.262c0,4.563,2.009,8.813,5.347,11.714L432.355,202.149z
			 M456.919,131.751c0,13.545-11.02,24.564-24.564,24.564s-24.564-11.02-24.564-24.564v-8.016c0-13.545,11.02-24.564,24.564-24.564
			s24.564,11.02,24.564,24.564V131.751z"/>
	</g>
</g>
<g>
	<g>
		<path d="M145.315,192.811l-37.823-16.81c-0.187-0.083-0.307-0.268-0.307-0.472v-15.412c7.408-7.194,12.024-17.249,12.024-28.366
			v-16.032c0-17.396-14.152-31.548-31.548-31.548H71.629c-17.396,0-31.548,14.153-31.548,31.548v16.032
			c0,11.118,4.616,21.172,12.024,28.367v15.411c0,0.204-0.121,0.389-0.307,0.472l-37.823,16.81C5.485,196.584,0,205.025,0,214.315
			v45.694c0,8.556,6.96,15.516,15.516,15.516h128.258c8.556,0,15.516-6.96,15.516-15.516v-45.694
			C159.29,205.025,153.805,196.584,145.315,192.811z M55.081,122.298c7.364,4.432,18.194,8.942,31.815,8.942
			c0.288,0,0.581-0.002,0.871-0.006c4.142-0.058,7.452-3.463,7.394-7.605c-0.058-4.106-3.404-7.394-7.497-7.394
			c-0.036,0-0.072,0-0.107,0.001c-14.37,0.2-24.658-6.206-29.472-9.994c2.995-4.269,7.945-7.072,13.544-7.072h16.032
			c9.125,0,16.548,7.424,16.548,16.548v16.032c0,13.545-11.02,24.564-24.564,24.564s-24.564-11.02-24.564-24.564V122.298z
			 M72.145,260.525H47.064v-24.564c0-4.142-3.358-7.5-7.5-7.5c-4.142,0-7.5,3.358-7.5,7.5v24.564H15.516
			c-0.285,0-0.516-0.231-0.516-0.516v-45.694c0-3.368,1.989-6.429,5.067-7.797l26.993-11.997l25.085,20.904V260.525z
			 M61.758,187.242c3.338-2.901,5.347-7.151,5.347-11.714v-6.262c3.944,1.322,8.157,2.049,12.54,2.049s8.597-0.727,12.541-2.049
			v6.262c0,4.563,2.009,8.813,5.347,11.714l-17.888,14.906L61.758,187.242z M144.291,260.009c0,0.285-0.231,0.516-0.516,0.516
			h-16.549v-24.564c0-4.142-3.358-7.5-7.5-7.5c-4.142,0-7.5,3.358-7.5,7.5v24.564H87.145v-45.1l25.085-20.904l26.994,11.997
			c3.078,1.368,5.067,4.429,5.067,7.797V260.009z"/>
	</g>
</g>
<g>
	<g>
		<path d="M432.355,292.59c-4.142,0-7.5,3.358-7.5,7.5v16.032c0,4.705-3.828,8.532-8.532,8.532H263.5v-24.565
			c0-4.142-3.358-7.5-7.5-7.5c-4.142,0-7.5,3.358-7.5,7.5v24.565H95.677c-4.705,0-8.532-3.828-8.532-8.532V300.09
			c0-4.142-3.358-7.5-7.5-7.5c-4.142,0-7.5,3.358-7.5,7.5v16.032c0,12.976,10.557,23.532,23.532,23.532H248.5v42.021
			c-13.786,3.375-24.048,15.829-24.048,30.64c0,17.396,14.152,31.548,31.548,31.548s31.548-14.152,31.548-31.548
			c0-14.812-10.262-27.265-24.048-30.64v-42.021h152.823c12.976,0,23.532-10.557,23.532-23.532V300.09
			C439.855,295.948,436.497,292.59,432.355,292.59z M272.548,412.315c0,9.125-7.423,16.548-16.548,16.548
			s-16.548-7.423-16.548-16.548s7.423-16.548,16.548-16.548S272.548,403.191,272.548,412.315z"/>
	</g>
</g>
<g>
</g>
<g>
</g>
<g>
</g>
<g>
</g>
<g>
</g>
<g>
</g>
<g>
</g>
<g>
</g>
<g>
</g>
<g>
</g>
<g>
</g>
<g>
</g>
<g>
</g>
<g>
</g>
<g>
</g>
</svg>
