<?xml version="1.0" ?><svg data-name="Layer 1" id="Layer_1" viewBox="0 0 508.33 508.36" xmlns="http://www.w3.org/2000/svg"><defs><style>.cls-1{fill:#262626;fill-rule:evenodd;}.cls-2{fill:#fff;}</style></defs><title/><path class="cls-1" d="M485,29.72c11.45,15.13,16.61,40.21,19.15,70.7,3.36,45.5,4.71,100.1,6,156.52-1.67,57.47-2.35,115.43-6,156.52-2.88,31.54-9,52.66-19.22,65.47-13,12.79-37.94,23.59-73.5,26.15-43.25,3.69-96.61,3.65-155.48,5.1-65.44-1.12-109.82-.64-156.38-5.08-36.32-2.52-60.08-13.19-74.7-26.07-10.83-14.54-14-30-17-66.24-3.75-41.85-4.58-98.56-6-155.54C4,200.57,4.13,143.44,7.9,100.74,10.43,67.05,14.42,44.4,24.65,30,39,17.77,63.48,11.69,100,8.69c50-5.85,102.06-7,155.88-6.87,55.39.09,108.56,1.67,156,6.34,32,2.56,58.48,8.07,73.07,21.56Z" transform="translate(-1.83 -1.82)"/><path class="cls-2" d="M250.43,126.1c40.17,0,44.92.15,60.8.88,14.65.68,22.61,3.14,27.91,5.18a49.81,49.81,0,0,1,28.55,28.55c2.06,5.3,4.51,13.27,5.18,27.93.72,15.86.88,20.62.88,60.8s-.15,44.92-.88,60.8c-.67,14.67-3.12,22.63-5.18,27.93a49.82,49.82,0,0,1-28.55,28.55c-5.3,2.06-13.27,4.51-27.93,5.18-15.86.72-20.62.88-60.8.88s-44.93-.15-60.8-.88c-14.67-.67-22.63-3.12-27.93-5.18a50,50,0,0,1-28.51-28.58c-2.06-5.3-4.51-13.27-5.18-27.93-.72-15.86-.88-20.62-.88-60.8s.15-44.92.88-60.8c.67-14.67,3.12-22.63,5.18-27.93a49.86,49.86,0,0,1,28.54-28.51c5.3-2.06,13.27-4.51,27.93-5.18,15.86-.72,20.62-.88,60.8-.88m0-27.1c-40.86,0-46,.17-62,.9s-26.94,3.27-36.51,7a77,77,0,0,0-44,44c-3.72,9.57-6.26,20.5-7,36.51s-.9,21.16-.9,62,.17,46,.9,62,3.27,26.94,7,36.51a76.92,76.92,0,0,0,44,44c9.57,3.72,20.5,6.26,36.51,7s21.16.9,62,.9,46-.17,62-.9,26.94-3.27,36.51-7a76.92,76.92,0,0,0,44-44c3.72-9.57,6.26-20.5,7-36.51s.9-21.16.9-62-.17-46-.9-62-3.27-26.94-7-36.51a76.92,76.92,0,0,0-44-44c-9.59-3.72-20.52-6.26-36.53-7s-21.16-.9-62-.9h0Z" transform="translate(-1.83 -1.82)"/><path class="cls-2" d="M250.43,172.18a77.25,77.25,0,1,0,77.25,77.25,77.25,77.25,0,0,0-77.25-77.25Zm0,127.39a50.14,50.14,0,1,1,50.14-50.14,50.14,50.14,0,0,1-50.14,50.14Z" transform="translate(-1.83 -1.82)"/><circle class="cls-2" cx="328.89" cy="167.31" r="18.05"/></svg>