<svg xmlns="http://www.w3.org/2000/svg" width="700" height="700" viewBox="0 0 700 700">
  <metadata><?xpacket begin="﻿" id="W5M0MpCehiHzreSzNTczkc9d"?>
<x:xmpmeta xmlns:x="adobe:ns:meta/" x:xmptk="Adobe XMP Core 5.6-c138 79.159824, 2016/09/14-01:09:01        ">
   <rdf:RDF xmlns:rdf="http://www.w3.org/1999/02/22-rdf-syntax-ns#">
      <rdf:Description rdf:about=""/>
   </rdf:RDF>
</x:xmpmeta>
                                                                                                    
                                                                                                    
                                                                                                    
                                                                                                    
                                                                                                    
                                                                                                    
                                                                                                    
                                                                                                    
                                                                                                    
                                                                                                    
                                                                                                    
                                                                                                    
                                                                                                    
                                                                                                    
                                                                                                    
                                                                                                    
                                                                                                    
                                                                                                    
                                                                                                    
                                                                                                    
                           
<?xpacket end="w"?></metadata>
<defs>
    <style>
      .cls-1 {
        fill: #4f5f6c;
        fill-rule: evenodd;
      }
    </style>
  </defs>
  <path id="a1" class="cls-1" d="M260.852,75.34c12.36,0,20.351-7.327,26.562-26.92S287.263,4.028,332.159,4.028s-7.476-.06,35.653,0S405.367,29,412.36,48.926,427,75.34,439.118,75.34H260.852Z"/>
  <path id="a2" class="cls-1" d="M437.69,74.419c10,7.263,20.772,6.03,37.317-6.172s25.98-36,62.3-9.622-6.012-4.441,28.844,20.949,15.7,42.269,9.641,62.5-3.69,29.97,6.117,37.093Z"/>
  <path id="a3" class="cls-1" d="M585.161,179.561c3.82,11.751,13.26,17.084,33.82,16.934s42.187-13.861,56.06,28.823-2.253-7.126,11.017,33.9-12.152,43.421-28.948,56.227-20.607,22.078-16.862,33.6C641.551,353.053,583.788,175.335,585.161,179.561Z"/>
  <path id="a4" class="cls-1" d="M640.217,350.5c-3.82,11.751.682,21.612,17.4,33.572s42.28,13.574,28.407,56.258,2.367-7.088-11.018,33.9-35.362,27.988-56.481,28.479-29.653,5.753-33.4,17.278C583.827,523.99,641.59,346.272,640.217,350.5Z"/>
  <path id="a5" class="cls-1" d="M586.059,520.427c-10,7.263-12.156,17.885-5.66,37.387s26.224,35.825-10.1,62.205,6.083-4.344-28.844,20.949-45.065,1.865-62.439-10.147-27.372-12.77-37.179-5.647Z"/>
  <path id="a6" class="cls-1" d="M440.3,624.688c-12.364,0-20.357,7.324-26.571,26.91s0.152,44.374-44.76,44.374,7.478,0.06-35.665,0-37.568-24.961-44.563-44.88-14.642-26.4-26.768-26.4H440.3Z"/>
  <path id="a7" class="cls-1" d="M263.4,625.609c-10-7.259-20.778-6.027-37.33,6.17s-25.988,35.988-62.322,9.618,6.014,4.439-28.854-20.941-15.706-42.252-9.645-62.474,3.692-29.957-6.118-37.077Z"/>
  <path id="a8" class="cls-1" d="M115.875,520.509c-3.821-11.746-13.264-17.076-33.831-16.927s-42.2,13.856-56.08-28.811,2.254,7.123-11.021-33.883,12.156-43.4,28.959-56.2,20.614-22.069,16.867-33.589Z"/>
  <path id="a9" class="cls-1" d="M60.8,349.641c3.821-11.746-.682-21.6-17.409-33.558S1.1,302.514,14.975,259.847,12.607,266.932,26,225.964,61.371,197.986,82.5,197.5s29.664-5.75,33.411-17.271Z"/>
  <path id="a10" class="cls-1" d="M114.977,179.78c10-7.26,12.16-17.878,5.662-37.371S94.406,106.6,130.74,80.228s-6.085,4.342,28.854-20.941,45.081-1.864,62.461,10.143,27.382,12.764,37.192,5.645Z"/>
</svg>
