<?xml version="1.0" encoding="iso-8859-1"?>
<!-- Generator: Adobe Illustrator 19.0.0, SVG Export Plug-In . SVG Version: 6.00 Build 0)  -->
<svg version="1.1" id="Layer_1" xmlns="http://www.w3.org/2000/svg" xmlns:xlink="http://www.w3.org/1999/xlink" x="0px" y="0px"
	 viewBox="0 0 512 512" style="enable-background:new 0 0 512 512;" xml:space="preserve">
<g>
	<g>
		<g>
			<path d="M129.347,185.937c0,4.465,3.619,8.084,8.084,8.084h75.453c4.466,0,8.084-3.62,8.084-8.084
				c0-4.465-3.619-8.084-8.084-8.084h-75.453C132.966,177.853,129.347,181.472,129.347,185.937z"/>
			<path d="M94.316,161.684h32.337c4.466,0,8.084-3.62,8.084-8.084c0-4.465-3.619-8.084-8.084-8.084H94.316
				c-4.466,0-8.084,3.62-8.084,8.084C86.232,158.064,89.85,161.684,94.316,161.684z"/>
			<path d="M237.137,59.937v115.22c0,10.401,8.463,18.863,18.863,18.863h107.79c10.401,0,18.863-8.463,18.863-18.863V59.937
				L423.4,19.19c3.157-3.156,3.157-8.275,0-11.432c-3.157-3.157-8.275-3.157-11.433,0l-40.748,40.748h-122.65L207.821,7.757
				c-3.157-3.157-8.275-3.157-11.433,0c-3.157,3.156-3.157,8.275,0,11.432L237.137,59.937z M253.305,64.674h113.179v110.484
				c0,1.485-1.208,2.695-2.695,2.695H256c-1.486,0-2.695-1.209-2.695-2.695V64.674z"/>
			<path d="M180.547,161.684h32.337c4.466,0,8.084-3.62,8.084-8.084c0-4.465-3.619-8.084-8.084-8.084h-32.337
				c-4.466,0-8.084,3.62-8.084,8.084C172.463,158.064,176.082,161.684,180.547,161.684z"/>
			<path d="M479.663,277.558c0-19.316-15.715-35.032-35.032-35.032c-19.317,0-35.032,15.716-35.032,35.032
				c0,19.316,15.715,35.032,35.032,35.032C463.948,312.589,479.663,296.874,479.663,277.558z M425.768,277.558
				c0-10.402,8.463-18.863,18.863-18.863c10.401,0,18.863,8.463,18.863,18.863c0,10.401-8.463,18.863-18.863,18.863
				C434.231,296.421,425.768,287.959,425.768,277.558z"/>
			<path d="M59.284,276.48v2.156c0,4.465,3.618,8.084,8.084,8.084c4.466,0,8.084-3.62,8.084-8.084v-2.156
				c0-4.465-3.618-8.084-8.084-8.084C62.903,268.396,59.284,272.015,59.284,276.48z"/>
			<path d="M220.968,277.558c0,19.316,15.715,35.032,35.032,35.032s35.032-15.716,35.032-35.032
				c0-19.316-15.715-35.032-35.032-35.032S220.968,258.242,220.968,277.558z M274.863,277.558c0,10.401-8.463,18.863-18.863,18.863
				c-10.401,0-18.863-8.463-18.863-18.863c0-10.401,8.463-18.863,18.863-18.863C266.401,258.695,274.863,267.157,274.863,277.558z"
				/>
			<path d="M503.916,490.442h-24.253v-13.474c0-16.345-13.298-29.642-29.642-29.642h-13.474v-56.528c0-0.039,0-0.076,0-0.115
				v-45.757h8.084c37.147,0,67.368-30.222,67.368-67.368c0-37.146-30.221-67.368-67.368-67.368h-37.726
				c-4.466,0-8.084,3.62-8.084,8.084c0,4.465,3.618,8.084,8.084,8.084h37.726c28.231,0,51.2,22.969,51.2,51.2
				c0,28.231-22.969,51.2-51.2,51.2h-80.784c-0.038,0-0.074,0-0.114,0h-43.008c-0.04,0-0.076,0-0.114,0H191.386
				c-0.038,0-0.074,0-0.114,0h-43.008c-0.04,0-0.077,0-0.114,0H67.368c-28.231,0-51.2-22.968-51.2-51.2s22.969-51.2,51.2-51.2h307.2
				c4.466,0,8.084-3.62,8.084-8.084c0-4.465-3.619-8.084-8.084-8.084h-307.2C30.221,210.189,0,240.411,0,277.558
				c0,37.146,30.221,67.368,67.368,67.368h8.084v45.757c0,0.039,0,0.076,0,0.115v56.528H61.979
				c-16.344,0-29.642,13.297-29.642,29.642v13.474H8.084c-4.466,0-8.084,3.62-8.084,8.084s3.619,8.084,8.084,8.084h53.895
				c4.466,0,8.084-3.62,8.084-8.084s-3.618-8.084-8.084-8.084H48.505v-13.474c0-7.43,6.044-13.474,13.474-13.474h43.116
				c7.43,0,13.474,6.044,13.474,13.474v13.474H94.316c-4.466,0-8.084,3.62-8.084,8.084s3.619,8.084,8.084,8.084h409.6
				c4.466,0,8.084-3.62,8.084-8.084S508.382,490.442,503.916,490.442z M420.379,344.926v28.55l-34.26-28.55H420.379z
				 M264.084,344.926h34.26l-34.26,28.55V344.926z M247.916,344.926v28.55l-34.26-28.55H247.916z M91.621,344.926h34.26
				l-34.26,28.55V344.926z M204.8,476.968v13.474h-70.063v-13.474c0-16.345-13.298-29.642-29.642-29.642H91.621v-52.803
				l59.517-49.597h37.261l59.517,49.597v52.803h-13.474C218.098,447.326,204.8,460.623,204.8,476.968z M291.032,490.442h-70.063
				v-13.474c0-7.43,6.044-13.474,13.474-13.474h43.116c7.43,0,13.474,6.044,13.474,13.474V490.442z M377.263,476.968v13.474H307.2
				v-13.474c0-16.345-13.298-29.642-29.642-29.642h-13.474v-52.803l59.517-49.597h37.261l59.517,49.597v52.803h-13.474
				C390.561,447.326,377.263,460.623,377.263,476.968z M463.495,490.442h-70.063v-13.474c0-7.43,6.044-13.474,13.474-13.474h43.116
				c7.43,0,13.474,6.044,13.474,13.474V490.442z"/>
			<path d="M452.716,278.636v-2.156c0-4.465-3.618-8.084-8.084-8.084c-4.466,0-8.084,3.62-8.084,8.084v2.156
				c0,4.465,3.618,8.084,8.084,8.084C449.097,286.72,452.716,283.1,452.716,278.636z"/>
			<path d="M32.337,277.558c0,19.316,15.715,35.032,35.032,35.032c19.317,0,35.032-15.716,35.032-35.032
				c0-19.316-15.715-35.032-35.032-35.032S32.337,258.242,32.337,277.558z M86.232,277.558c0,10.401-8.463,18.863-18.863,18.863
				c-10.401,0-18.863-8.463-18.863-18.863c0-10.401,8.463-18.863,18.863-18.863C77.769,258.695,86.232,267.157,86.232,277.558z"/>
			<path d="M247.916,276.48v2.156c0,4.465,3.619,8.084,8.084,8.084c4.466,0,8.084-3.62,8.084-8.084v-2.156
				c0-4.465-3.619-8.084-8.084-8.084C251.534,268.396,247.916,272.015,247.916,276.48z"/>
		</g>
	</g>
</g>
<g>
</g>
<g>
</g>
<g>
</g>
<g>
</g>
<g>
</g>
<g>
</g>
<g>
</g>
<g>
</g>
<g>
</g>
<g>
</g>
<g>
</g>
<g>
</g>
<g>
</g>
<g>
</g>
<g>
</g>
</svg>
