<?xml version="1.0" encoding="iso-8859-1"?>
<!-- Generator: Adobe Illustrator 19.0.0, SVG Export Plug-In . SVG Version: 6.00 Build 0)  -->
<svg version="1.1" id="Capa_1" xmlns="http://www.w3.org/2000/svg" xmlns:xlink="http://www.w3.org/1999/xlink" x="0px" y="0px"
	 viewBox="0 0 480 480" style="enable-background:new 0 0 480 480;" xml:space="preserve">
<g>
	<g>
		<path d="M456,0H24C10.745,0,0,10.745,0,24v352c0,13.255,10.745,24,24,24h192v-16H24c-4.418,0-8-3.582-8-8V24c0-4.418,3.582-8,8-8
			h432c4.418,0,8,3.582,8,8v352c0,4.418-3.582,8-8,8h-32v16h32c13.255,0,24-10.745,24-24V24C480,10.745,469.255,0,456,0z"/>
	</g>
</g>
<g>
	<g>
		<path d="M432,176h-56v-24c0-4.418-3.582-8-8-8h-72v-24c0-4.418-3.582-8-8-8H152V88c0-4.418-3.582-8-8-8H48c-4.418,0-8,3.582-8,8
			v32c0,4.418,3.582,8,8,8h56v24c0,4.418,3.582,8,8,8h120v24c0,4.418,3.582,8,8,8h88v24c0,4.418,3.582,8,8,8h96c4.418,0,8-3.582,8-8
			v-32C440,179.582,436.418,176,432,176z M56,112V96h80v16H56z M120,144v-16h160v16H120z M248,176v-16h112v16H248z M424,208h-80v-16
			h80V208z"/>
	</g>
</g>
<g>
	<g>
		<rect x="200" y="352" width="16" height="16"/>
	</g>
</g>
<g>
	<g>
		<rect x="168" y="352" width="16" height="16"/>
	</g>
</g>
<g>
	<g>
		<rect x="136" y="352" width="16" height="16"/>
	</g>
</g>
<g>
	<g>
		<rect x="104" y="352" width="16" height="16"/>
	</g>
</g>
<g>
	<g>
		<rect x="72" y="352" width="16" height="16"/>
	</g>
</g>
<g>
	<g>
		<rect x="40" y="352" width="16" height="16"/>
	</g>
</g>
<g>
	<g>
		<rect x="424" y="352" width="16" height="16"/>
	</g>
</g>
<g>
	<g>
		<rect x="40" y="144" width="16" height="192"/>
	</g>
</g>
<g>
	<g>
		<rect x="136" y="176" width="16" height="160"/>
	</g>
</g>
<g>
	<g>
		<rect x="104" y="176" width="16" height="160"/>
	</g>
</g>
<g>
	<g>
		<rect x="424" y="240" width="16" height="96"/>
	</g>
</g>
<g>
	<g>
		<rect x="376" y="32" width="64" height="16"/>
	</g>
</g>
<g>
	<g>
		<rect x="40" y="32" width="16" height="16"/>
	</g>
</g>
<g>
	<g>
		<rect x="72" y="32" width="16" height="16"/>
	</g>
</g>
<g>
	<g>
		<rect x="104" y="32" width="16" height="16"/>
	</g>
</g>
<g>
	<g>
		<rect x="376" y="64" width="64" height="16"/>
	</g>
</g>
<g>
	<g>
		<path d="M388,312.32c-4.036-0.625-8.164-0.218-12,1.184V240h-16v73.432c-5.162-1.909-10.838-1.909-16,0V240h-16v73.728
			c-5.143-1.907-10.777-2.033-16-0.36v-72.512c0.15-11.941-8.274-22.276-20-24.536c-13.069-2.209-25.455,6.595-27.664,19.664
			c-0.224,1.327-0.337,2.67-0.336,4.016v88c-4.739-3.531-10.205-5.963-16-7.12V208h-16v216c0.003,1.58,0.47,3.124,1.344,4.44
			L267.72,480h19.2L248,421.6v-84.232c9.582,3.403,15.988,12.464,16,22.632v32c0,4.418,3.582,8,8,8s8-3.582,8-8V240
			c-0.002-4.418,3.578-8.002,7.997-8.003c0.471,0,0.94,0.041,1.403,0.123c3.994,0.977,6.752,4.627,6.6,8.736V336
			c0,4.418,3.582,8,8,8s8-3.582,8-8s3.582-8,8-8s8,3.582,8,8s3.582,8,8,8s8-3.582,8-8s3.582-8,8-8s8,3.582,8,8s3.582,8,8,8
			s8-3.582,8-8c-0.002-4.418,3.578-8.002,7.997-8.003c0.471,0,0.94,0.041,1.403,0.123c3.994,0.977,6.752,4.627,6.6,8.736V480h16
			V336.856C408.15,324.915,399.726,314.58,388,312.32z"/>
	</g>
</g>
<g>
</g>
<g>
</g>
<g>
</g>
<g>
</g>
<g>
</g>
<g>
</g>
<g>
</g>
<g>
</g>
<g>
</g>
<g>
</g>
<g>
</g>
<g>
</g>
<g>
</g>
<g>
</g>
<g>
</g>
</svg>
