<?xml version="1.0" encoding="iso-8859-1"?>
<!-- Generator: Adobe Illustrator 19.0.0, SVG Export Plug-In . SVG Version: 6.00 Build 0)  -->
<svg version="1.1" id="servicesSVG" xmlns="http://www.w3.org/2000/svg" xmlns:xlink="http://www.w3.org/1999/xlink" x="0px" y="0px"
	 viewBox="0 0 496 496" style="enable-background:new 0 0 496 496;" xml:space="preserve">
<g>
	<g>
		<g>
			<path d="M496,240c0-18.44-7.136-36.08-19.688-49.4c2.36-7.112,3.688-14.704,3.688-22.6c0-35.552-26.08-65.712-60.968-71.088
				c-6.6-14.664-19.344-26.008-35.32-30.632C380.776,29.248,349.768,0,312,0c-22.608,0-42.792,10.496-56,26.848V0h-62.24
				l-12.768,51.056c-8.392,2.856-16.712,6.32-24.832,10.328L110.992,34.28L34.28,111l27.104,45.168
				c-4,8.096-7.464,16.416-10.328,24.824L0,193.752v108.496l51.056,12.768c3.344,9.808,7.496,19.488,12.368,28.84l14.184-7.392
				c-5.152-9.888-9.424-20.168-12.696-30.552l-1.352-4.272L16,289.752v-83.504l47.56-11.888l1.352-4.272
				c3.272-10.376,7.544-20.664,12.696-30.552l2.072-3.976l-25.256-42.088l59.056-59.048l42.08,25.256l3.968-2.064
				c9.928-5.168,20.216-9.44,30.56-12.704l4.272-1.344L206.248,16H240v112.408C177.56,132.552,128,184.536,128,248
				s49.56,115.448,112,119.592V480h-33.752l-11.888-47.56l-4.272-1.344c-10.344-3.272-20.632-7.544-30.56-12.704l-3.968-2.064
				l-42.08,25.256L50.008,378.12l-11.312,11.312l72.296,72.304l45.168-27.104c8.12,4.008,16.44,7.472,24.832,10.328L193.76,496H256
				v-21.808C267.736,487.528,284.88,496,304,496c23.648,0,44.288-12.92,55.368-32.048C359.576,463.96,359.792,464,360,464
				c34.768,0,63.088-27.88,63.92-62.448c11.096-6.416,19.368-17.12,22.576-29.856C471.088,362.392,488,338.576,488,312
				c0-9.88-2.312-19.616-6.736-28.464C490.808,271.016,496,255.768,496,240z M240,351.6c-53.608-4.12-96-48.952-96-103.6
				s42.392-99.48,96-103.592V351.6z M464.824,286.848C469.512,294.464,472,303.16,472,312c0,17.432-9.72,33.264-24.464,41.664
				C444.416,330.184,424.312,312,400,312v16c17.648,0,32,14.352,32,32s-14.352,32-32,32s-32-14.352-32-32h-16
				c0,26.472,21.528,48,48,48c2.512,0,4.96-0.256,7.376-0.624c-3.264,21.016-20.168,37.544-41.376,40.208c1.256-5,2-10.2,2-15.584
				c0-35.288-28.712-64-64-64v16c26.472,0,48,21.528,48,48s-21.528,48-48,48s-48-21.528-48-48V72c0-30.88,25.128-56,56-56
				s56,25.12,56,56s-25.128,56-56,56v16c35.944,0,65.728-26.504,71.064-60.968C397.88,89.024,408,103.376,408,120
				c0,22.056-17.944,40-40,40v16c30.872,0,56-25.12,56-56c0-1.936-0.12-3.84-0.312-5.728C447.176,121.12,464,142.816,464,168
				c0,30.88-25.128,56-56,56v16c25.568,0,48.008-13.44,60.784-33.576C475.992,216.04,480,227.8,480,240
				c0,13.744-5.096,26.992-14.336,37.312l-3.984,4.448L464.824,286.848z"/>
			<rect x="288" y="424" width="16" height="16"/>
			<rect x="328" y="240" width="16" height="16"/>
			<rect x="280" y="64" width="16" height="16"/>
			<rect x="416" y="184" width="16" height="16"/>
			<rect x="272" y="296" width="16" height="16"/>
			<rect x="424" y="280" width="16" height="16"/>
			<path d="M222.744,405.832l2.512-15.808c-37.816-6.008-72.296-27.392-94.616-58.664l-13.016,9.296
				C142.416,375.392,180.728,399.144,222.744,405.832z"/>
			<path d="M225.256,105.976l-2.512-15.808C144.664,102.592,88,168.968,88,248c0,26.464,6.6,52.664,19.096,75.784l14.08-7.608
				C109.936,295.392,104,271.816,104,248C104,176.88,154.992,117.152,225.256,105.976z"/>
		</g>
	</g>
</g>
<g>
</g>
<g>
</g>
<g>
</g>
<g>
</g>
<g>
</g>
<g>
</g>
<g>
</g>
<g>
</g>
<g>
</g>
<g>
</g>
<g>
</g>
<g>
</g>
<g>
</g>
<g>
</g>
<g>
</g>
</svg>
