<?xml version="1.0" encoding="iso-8859-1"?>
<!-- Generator: Adobe Illustrator 19.0.0, SVG Export Plug-In . SVG Version: 6.00 Build 0)  -->
<svg version="1.1" id="strategySVG" xmlns="http://www.w3.org/2000/svg" xmlns:xlink="http://www.w3.org/1999/xlink" x="0px" y="0px"
	 viewBox="0 0 485.656 485.656" style="enable-background:new 0 0 485.656 485.656;" xml:space="preserve">
<g>
	<g>
		<path d="M271.632,156.198c5.392-6.917,8.335-15.428,8.368-24.198c0-22.091-17.909-40-40-40c-22.091,0-40,17.909-40,40
			c0.033,8.77,2.976,17.281,8.368,24.198c-27.25,2.06-48.323,24.748-48.368,52.076V276c-0.003,4.416,3.575,7.997,7.991,8
			c0.003,0,0.006,0,0.009,0h24v104c-0.003,4.416,3.575,7.997,7.991,8c0.003,0,0.006,0,0.009,0h80c4.416,0.003,7.997-3.575,8-7.991
			c0-0.003,0-0.006,0-0.009V284h24c4.416,0.003,7.997-3.575,8-7.991c0-0.003,0-0.006,0-0.009v-67.727
			C319.955,180.946,298.882,158.258,271.632,156.198z M240,108c13.255,0,24,10.745,24,24s-10.745,24-24,24s-24-10.745-24-24
			C216.014,118.751,226.751,108.014,240,108z M304,268h-16v-72h-16v184h-24V276h-16v104h-24V196h-16v72h-16v-59.727
			c0.023-20.024,16.25-36.25,36.273-36.273h55.453c20.024,0.023,36.25,16.25,36.273,36.273V268z"/>
	</g>
</g>
<g>
	<g>
		<path d="M448,4c-17.666,0.018-31.982,14.334-32,32c0,17.673,14.327,32,32,32c17.673,0,32-14.327,32-32S465.673,4,448,4z M448,52
			c-8.837,0-16-7.163-16-16s7.163-16,16-16c8.832,0.011,15.989,7.168,16,16C464,44.837,456.837,52,448,52z"/>
	</g>
</g>
<g>
	<g>
		<path d="M200,4c-17.666,0.018-31.982,14.334-32,32c0,17.673,14.327,32,32,32s32-14.327,32-32S217.673,4,200,4z M200,52
			c-8.837,0-16-7.163-16-16c0.011-8.832,7.168-15.989,16-16c8.837,0,16,7.163,16,16S208.837,52,200,52z"/>
	</g>
</g>
<g>
	<g>
		<path d="M384,356c-17.666,0.018-31.982,14.334-32,32c0,17.673,14.327,32,32,32c17.673,0,32-14.327,32-32
			C416,370.327,401.673,356,384,356z M384,404c-8.837,0-16-7.163-16-16s7.163-16,16-16c8.832,0.011,15.989,7.168,16,16
			C400,396.837,392.837,404,384,404z"/>
	</g>
</g>
<g>
	<g>
		<path d="M32,412c-17.673,0-32,14.327-32,32c0.018,17.666,14.334,31.982,32,32c17.673,0,32-14.327,32-32
			C64,426.327,49.673,412,32,412z M32,460c-8.837,0-16-7.163-16-16c0.011-8.832,7.168-15.989,16-16c8.837,0,16,7.163,16,16
			S40.837,460,32,460z"/>
	</g>
</g>
<g>
	<g>
		<path d="M88,188c-17.673,0-32,14.327-32,32c0.018,17.666,14.334,31.982,32,32c17.673,0,32-14.327,32-32S105.673,188,88,188z
			 M88,236c-8.837,0-16-7.163-16-16c0.011-8.832,7.168-15.989,16-16c8.837,0,16,7.163,16,16S96.837,236,88,236z"/>
	</g>
</g>
<g>
	<g>
		<path d="M453.656,86.344c-3.122-3.124-8.186-3.125-11.309-0.003c-0.001,0.001-0.002,0.002-0.003,0.003l-32,32l11.312,11.312
			L440,111.313V116c-0.066,57.41-46.59,103.934-104,104v16c66.244-0.072,119.928-53.756,120-120v-4.688l18.344,18.344l11.312-11.313
			L453.656,86.344z"/>
	</g>
</g>
<g>
	<g>
		<path d="M107.669,147.668c8.652-30.157,29.541-55.312,57.596-69.355L158.109,64c-31.843,15.9-55.643,44.322-65.704,78.462
			l-13.546-22.579l-13.719,8.234l24,40c2.274,3.788,7.188,5.016,10.977,2.742l40-24l-8.234-13.719L107.669,147.668z"/>
	</g>
</g>
<g>
	<g>
		<path d="M340.203,412.953c-65.503,35.231-141.352,46.17-214.141,30.883l-19.138-4.028l17.872-13.41l-9.594-12.797l-32,24
			c-3.533,2.641-4.255,7.645-1.615,11.178c0.004,0.006,0.009,0.012,0.013,0.017l24,32l12.797-9.594l-11.244-14.997l15.611,3.286
			c76.489,16.083,156.201,4.59,225.031-32.445L340.203,412.953z"/>
	</g>
</g>
<g>
	<g>
		<polygon points="61.656,17.656 50.344,6.344 32,24.688 13.656,6.344 2.344,17.656 20.688,36 2.344,54.344 13.656,65.656 
			32,47.312 50.344,65.656 61.656,54.344 43.312,36 		"/>
	</g>
</g>
<g>
	<g>
		<polygon points="389.656,97.656 378.344,86.344 360,104.688 341.656,86.344 330.344,97.656 348.688,116 330.344,134.344 
			341.656,145.656 360,127.312 378.344,145.656 389.656,134.344 371.312,116 		"/>
	</g>
</g>
<g>
	<g>
		<polygon points="461.656,257.656 450.344,246.344 432,264.688 413.656,246.344 402.344,257.656 420.688,276 402.344,294.344 
			413.656,305.656 432,287.312 450.344,305.656 461.656,294.344 443.312,276 		"/>
	</g>
</g>
<g>
	<g>
		<polygon points="165.656,337.656 154.344,326.344 136,344.688 117.656,326.344 106.344,337.656 124.688,356 106.344,374.344 
			117.656,385.656 136,367.312 154.344,385.656 165.656,374.344 147.312,356 		"/>
	</g>
</g>
<g>
	<g>
		<polygon points="477.656,433.656 466.344,422.344 448,440.688 429.656,422.344 418.344,433.656 436.688,452 418.344,470.344 
			429.656,481.656 448,463.312 466.344,481.656 477.656,470.344 459.312,452 		"/>
	</g>
</g>
<g>
	<g>
		<polygon points="61.656,273.656 50.344,262.344 32,280.688 13.656,262.344 2.344,273.656 20.688,292 2.344,310.344 
			13.656,321.656 32,303.312 50.344,321.656 61.656,310.344 43.312,292 		"/>
	</g>
</g>
<g>
</g>
<g>
</g>
<g>
</g>
<g>
</g>
<g>
</g>
<g>
</g>
<g>
</g>
<g>
</g>
<g>
</g>
<g>
</g>
<g>
</g>
<g>
</g>
<g>
</g>
<g>
</g>
<g>
</g>
</svg>
