<?xml version="1.0" encoding="iso-8859-1"?>
<!-- Generator: Adobe Illustrator 19.0.0, SVG Export Plug-In . SVG Version: 6.00 Build 0)  -->
<svg version="1.1" id="supportSVG" xmlns="http://www.w3.org/2000/svg" xmlns:xlink="http://www.w3.org/1999/xlink" x="0px" y="0px"
	 viewBox="0 0 496 496" style="enable-background:new 0 0 496 496;" xml:space="preserve">
<g>
	<g>
		<g>
			<path d="M432,336h-10.84c16.344-13.208,26.84-33.392,26.84-56v-32c0-30.872-25.128-56-56-56h-32c-2.72,0-5.376,0.264-8,0.64V48
				h16V0H0v48h16v232H0v48h187.056l40,80H304v88h192v-96C496,364.712,467.288,336,432,336z M422.584,371.328l-32.472,13.92
				L412.28,352h5.472L422.584,371.328z M358.944,352h34.112L376,377.576L358.944,352z M361.872,385.248l-32.472-13.92L334.24,352
				h5.472L361.872,385.248z M432.008,280C432,310.872,406.872,336,376,336s-56-25.128-56-56h37.424
				c14.12,0,27.392-5.504,37.368-15.48l4.128-4.128c8.304,10.272,20.112,16.936,33.088,18.92V280z M48,192v72h107.176
				c0.128,0.28,0.176,0.584,0.312,0.856L163.056,280H32V48h304v149.48c-18.888,9.008-32,28.24-32,50.52v32h-65.064l-24.816-46.528
				C208.368,222.696,197.208,216,185,216c-10.04,0-18.944,4.608-25,11.712V192H48z M144,208v40H64v-40H144z M360,208h32
				c22.056,0,40,17.944,40,40v15.072c-9.168-2.032-17.32-7.48-22.656-15.48l-8.104-12.152l-17.768,17.768
				c-6.96,6.96-16.208,10.792-26.048,10.792H320v-16C320,225.944,337.944,208,360,208z M16,16h336v16H16V16z M16,312v-16h155.056
				l8,16H16z M256,392h-19.056L169.8,257.712c-1.176-2.36-1.8-4.992-1.8-7.608V249c0-9.376,7.624-17,17-17c6.288,0,12.04,3.456,15,9
				l56,104.992V392z M247.464,296h58.392c1.28,5.616,3.232,10.968,5.744,16H256L247.464,296z M264.536,328h57.952
				c2.584,2.872,5.352,5.568,8.36,8H268.8L264.536,328z M480,480h-32v-32h32V480z M480,432h-32v-32h-16v80H320v-88h-48v-40h45.76
				l-7.168,28.672L376,408.704l65.416-28.032l-7.144-28.56C459.68,353.312,480,374.296,480,400V432z"/>
			<path d="M160,128v-16h-16.808c-1.04-5.096-3.072-9.832-5.856-14.024l11.92-11.92l-11.312-11.312l-11.92,11.92
				c-4.192-2.784-8.928-4.816-14.024-5.856V64H96v16.808c-5.096,1.04-9.832,3.072-14.024,5.856l-11.92-11.92L58.744,86.056
				l11.92,11.92c-2.784,4.192-4.816,8.928-5.856,14.024H48v16h16.808c1.04,5.096,3.072,9.832,5.856,14.024l-11.92,11.92
				l11.312,11.312l11.92-11.92c4.192,2.784,8.928,4.816,14.024,5.856V176h16v-16.808c5.096-1.04,9.832-3.072,14.024-5.856
				l11.92,11.92l11.312-11.312l-11.92-11.92c2.784-4.192,4.816-8.928,5.856-14.024H160z M104,144c-13.232,0-24-10.768-24-24
				s10.768-24,24-24s24,10.768,24,24S117.232,144,104,144z"/>
			<polygon points="244.28,80 272,80 272,64 235.72,64 203.72,112 176,112 176,128 212.28,128 			"/>
			<rect x="288" y="64" width="32" height="16"/>
			<path d="M224,144h-48v48h48V144z M208,176h-16v-16h16V176z"/>
			<rect x="240" y="160" width="32" height="16"/>
			<rect x="288" y="160" width="32" height="16"/>
		</g>
	</g>
</g>
<g>
</g>
<g>
</g>
<g>
</g>
<g>
</g>
<g>
</g>
<g>
</g>
<g>
</g>
<g>
</g>
<g>
</g>
<g>
</g>
<g>
</g>
<g>
</g>
<g>
</g>
<g>
</g>
<g>
</g>
</svg>
