<?xml version="1.0" encoding="iso-8859-1"?>
<!-- Generator: Adobe Illustrator 19.0.0, SVG Export Plug-In . SVG Version: 6.00 Build 0)  -->
<svg version="1.1" id="Capa_1" xmlns="http://www.w3.org/2000/svg" xmlns:xlink="http://www.w3.org/1999/xlink" x="0px" y="0px"
	 viewBox="0 0 470 470" style="enable-background:new 0 0 470 470;" xml:space="preserve">
<g>
	<path d="M462.5,22.5H7.5C3.357,22.5,0,25.857,0,30v410c0,4.143,3.357,7.5,7.5,7.5h455c4.143,0,7.5-3.357,7.5-7.5V30
		C470,25.857,466.643,22.5,462.5,22.5z M455,432.5H15v-395h277.5v45h-255c-4.143,0-7.5,3.357-7.5,7.5s3.357,7.5,7.5,7.5h395
		c4.143,0,7.5-3.357,7.5-7.5s-3.357-7.5-7.5-7.5h-125v-45H455V432.5z"/>
	<circle cx="381.5" cy="60" r="7.5"/>
	<circle cx="340.5" cy="60" r="7.5"/>
	<circle cx="422.5" cy="60" r="7.5"/>
	<path d="M235,206.676c-30.646,0-55.577,24.932-55.577,55.577S204.354,317.83,235,317.83c8.816,0,17.612-2.133,25.436-6.167
		c3.682-1.898,5.127-6.422,3.229-10.104c-1.899-3.682-6.422-5.124-10.104-3.229c-5.789,2.985-12.033,4.499-18.561,4.499
		c-22.374,0-40.577-18.203-40.577-40.577s18.203-40.577,40.577-40.577s40.577,18.203,40.577,40.577
		c0,6.528-1.514,12.772-4.498,18.56c-1.898,3.681-0.453,8.204,3.229,10.104c3.68,1.895,8.203,0.455,10.104-3.229
		c4.034-7.821,6.166-16.616,6.166-25.435C290.577,231.607,265.646,206.676,235,206.676z"/>
	<path d="M358.087,234.753h-31.543c-1.851-6.15-4.322-12.095-7.387-17.767l22.324-22.323c1.406-1.407,2.196-3.314,2.196-5.304
		s-0.79-3.896-2.196-5.304l-28.284-28.284c-2.93-2.928-7.678-2.928-10.607,0l-22.323,22.324c-5.672-3.064-11.616-5.536-17.767-7.387
		v-31.543c0-4.143-3.357-7.5-7.5-7.5h-40c-4.143,0-7.5,3.357-7.5,7.5v31.543c-6.15,1.851-12.095,4.322-17.767,7.387l-22.323-22.324
		c-2.93-2.928-7.678-2.928-10.607,0l-28.284,28.284c-1.406,1.407-2.196,3.314-2.196,5.304s0.79,3.896,2.196,5.304l22.324,22.323
		c-3.064,5.672-5.536,11.616-7.387,17.767h-31.543c-4.143,0-7.5,3.357-7.5,7.5v40c0,4.143,3.357,7.5,7.5,7.5h31.544
		c1.851,6.152,4.321,12.096,7.386,17.767l-22.323,22.322c-1.407,1.407-2.197,3.314-2.197,5.304s0.79,3.896,2.196,5.304
		l28.284,28.284c2.929,2.927,7.678,2.929,10.606,0l22.324-22.323c5.672,3.064,11.616,5.536,17.767,7.387v31.542
		c0,4.143,3.357,7.5,7.5,7.5h40c4.143,0,7.5-3.357,7.5-7.5v-31.542c6.15-1.851,12.095-4.322,17.767-7.387l22.324,22.323
		c2.928,2.928,7.677,2.928,10.606,0l28.284-28.284c1.406-1.407,2.196-3.314,2.196-5.304s-0.79-3.896-2.197-5.304l-22.323-22.322
		c3.064-5.672,5.535-11.615,7.386-17.767h31.544c4.143,0,7.5-3.357,7.5-7.5v-40C365.587,238.11,362.229,234.753,358.087,234.753z
		 M350.587,274.753h-29.802c-3.486,0-6.513,2.402-7.305,5.798c-1.995,8.563-5.383,16.712-10.069,24.223
		c-1.848,2.961-1.408,6.805,1.061,9.273l21.1,21.099l-17.678,17.678l-21.101-21.1c-2.468-2.467-6.31-2.906-9.272-1.06
		c-7.511,4.687-15.661,8.074-24.223,10.069c-3.396,0.792-5.798,3.818-5.798,7.305v29.801h-25v-29.801
		c0-3.486-2.402-6.513-5.798-7.305c-8.562-1.995-16.712-5.383-24.223-10.069c-2.962-1.847-6.807-1.406-9.272,1.06l-21.101,21.1
		l-17.678-17.678l21.1-21.099c2.469-2.469,2.908-6.313,1.06-9.274c-4.685-7.508-8.072-15.657-10.068-24.222
		c-0.792-3.396-3.818-5.798-7.305-5.798h-29.802v-25h29.802c3.486,0,6.513-2.402,7.305-5.798
		c1.995-8.562,5.383-16.712,10.069-24.223c1.848-2.961,1.408-6.805-1.06-9.273l-21.101-21.1l17.678-17.678l21.1,21.101
		c2.468,2.468,6.312,2.908,9.273,1.06c7.511-4.687,15.661-8.074,24.223-10.069c3.396-0.792,5.798-3.818,5.798-7.305v-29.802h25
		v29.802c0,3.486,2.402,6.513,5.798,7.305c8.562,1.995,16.712,5.383,24.223,10.069c2.962,1.848,6.807,1.405,9.273-1.06l21.1-21.101
		l17.678,17.678l-21.101,21.1c-2.468,2.469-2.907,6.313-1.06,9.273c4.687,7.511,8.074,15.661,10.069,24.223
		c0.792,3.396,3.818,5.798,7.305,5.798h29.802V274.753z"/>
</g>
<g>
</g>
<g>
</g>
<g>
</g>
<g>
</g>
<g>
</g>
<g>
</g>
<g>
</g>
<g>
</g>
<g>
</g>
<g>
</g>
<g>
</g>
<g>
</g>
<g>
</g>
<g>
</g>
<g>
</g>
</svg>
