<?xml version="1.0" encoding="iso-8859-1"?>
<!-- Generator: Adobe Illustrator 19.0.0, SVG Export Plug-In . SVG Version: 6.00 Build 0)  -->
<svg version="1.1" id="Capa_1" xmlns="http://www.w3.org/2000/svg" xmlns:xlink="http://www.w3.org/1999/xlink" x="0px" y="0px"
	 viewBox="0 0 512 512" style="enable-background:new 0 0 512 512;" xml:space="preserve">
<g>
	<g>
		<path d="M244.789,74.573c-106.308,0-192.796,86.488-192.796,192.796s86.488,192.796,192.796,192.796
			c106.309,0,192.797-86.488,192.797-192.796S351.098,74.573,244.789,74.573z M422.416,259.87h-40.001
			c-0.714-26.38-5.189-51.84-13.064-75.136c9.341-3.684,17.953-7.801,25.693-12.311C411.222,197.931,421.079,227.817,422.416,259.87
			z M386.461,160.073c-6.768,3.88-14.26,7.442-22.364,10.658c-5.767-13.938-12.817-26.943-21.08-38.699
			c-6.665-9.483-13.916-17.86-21.633-25.096C347.087,119.258,369.384,137.58,386.461,160.073z M319.566,259.87
			c-0.296-20.815-1.816-41.054-4.474-60.083c14.18-2.582,27.651-5.935,40.121-9.988c7.171,21.334,11.476,45.042,12.196,70.071
			H319.566z M367.409,274.87c-0.727,25.226-5.1,49.108-12.371,70.573c-12.444-4.035-25.883-7.373-40.023-9.945
			c2.71-19.203,4.258-39.578,4.552-60.628H367.409z M349.953,175.788c-11.544,3.724-24.031,6.819-37.199,9.221
			c-3.315-18.726-7.78-36.028-13.303-51.226c-5.342-14.7-11.507-26.845-18.286-36.239
			C310.148,110.599,334.558,138.83,349.953,175.788z M273.734,274.87h30.832v0c-0.302,20.024-1.816,39.717-4.414,58.241
			c-15.41-2.149-31.482-3.413-47.863-3.709v-33.087C262.76,293.6,271.019,285.34,273.734,274.87z M252.289,238.424v-32.529
			c16.434-0.297,32.551-1.567,48-3.727c2.531,18.241,3.984,37.675,4.275,57.702h-30.83
			C271.019,249.399,262.759,241.139,252.289,238.424z M237.289,91.184V118c0,4.142,3.357,7.5,7.5,7.5s7.5-3.358,7.5-7.5V91.184
			c11.911,5.04,23.646,21.808,33.064,47.723c5.215,14.351,9.442,30.719,12.598,48.473c-14.664,2.027-29.996,3.222-45.662,3.513V163
			c0-4.142-3.357-7.5-7.5-7.5s-7.5,3.358-7.5,7.5v27.893c-9.176-0.171-18.232-0.661-27.112-1.437
			c-0.407-10.112-5.858-18.942-13.902-24.044c2.319-9.413,4.97-18.296,7.952-26.505C213.643,112.991,225.378,96.224,237.289,91.184z
			 M130.762,321.635c-0.948,0-1.885,0.049-2.81,0.136c-3.311-14.883-5.311-30.609-5.78-46.901h47.842v0
			c0.299,21.017,1.851,41.443,4.555,60.635c-5.682,1.034-11.248,2.191-16.686,3.468
			C153.128,328.746,142.763,321.635,130.762,321.635z M145.66,351.533c0,8.215-6.683,14.899-14.898,14.899
			c-8.215,0-14.898-6.684-14.898-14.899c-0.001-8.215,6.683-14.898,14.898-14.898C138.977,336.635,145.66,343.319,145.66,351.533z
			 M122.171,259.869c0.721-25.028,5.024-48.737,12.195-70.071c5.259,1.71,10.709,3.283,16.302,4.738
			c1.551,11.953,10.181,21.708,21.54,24.91c-1.249,13.102-1.999,26.628-2.194,40.423H122.171z M165.41,190.671
			c0-8.215,6.684-14.898,14.898-14.898c8.216,0,14.899,6.683,14.899,14.898c0.001,8.216-6.683,14.899-14.899,14.899
			C172.093,205.57,165.41,198.886,165.41,190.671z M187.243,219.749c8.608-2.052,15.782-7.836,19.713-15.544
			c9.932,0.927,20.067,1.503,30.333,1.689v32.53c-10.47,2.715-18.73,10.975-21.444,21.445h-30.831
			C185.214,246.147,185.976,232.719,187.243,219.749z M208.414,97.544c-6.779,9.394-12.944,21.54-18.286,36.24
			c-3.053,8.4-5.768,17.463-8.155,27.039c-0.551-0.03-1.105-0.049-1.664-0.049c-12.564,0-23.336,7.794-27.753,18.798
			c-4.422-1.179-8.746-2.434-12.93-3.783C155.021,138.829,179.432,110.599,208.414,97.544z M168.197,106.936
			c-7.718,7.236-14.969,15.613-21.634,25.097c-8.263,11.756-15.314,24.76-21.08,38.699c-8.104-3.216-15.599-6.779-22.366-10.659
			C120.195,137.579,142.493,119.256,168.197,106.936z M94.533,172.423c7.741,4.51,16.354,8.627,25.695,12.311
			c-7.876,23.296-12.35,48.756-13.063,75.136H67.162C68.5,227.817,78.357,197.931,94.533,172.423z M94.786,362.72
			c-16.328-25.596-26.279-55.629-27.624-87.85h40.003c0.485,17.926,2.721,35.422,6.567,52.109
			c-7.77,5.405-12.869,14.393-12.869,24.554c0,2.541,0.32,5.008,0.92,7.364C99.38,360.138,97.046,361.412,94.786,362.72z
			 M103.42,375.061c1.818-1.034,3.68-2.049,5.6-3.037c5.455,5.785,13.182,9.408,21.742,9.408c0.942,0,1.873-0.049,2.794-0.135
			c3.929,7.507,8.268,14.665,13.008,21.409c6.665,9.484,13.916,17.861,21.634,25.097
			C142.644,415.555,120.459,397.374,103.42,375.061z M147.764,376.107c7.227-5.016,12.141-13.131,12.809-22.407
			c5.316-1.26,10.772-2.401,16.352-3.418c3.303,18.515,7.735,35.624,13.204,50.673c5.342,14.7,11.507,26.846,18.286,36.239
			C184.102,426.245,163.015,404.608,147.764,376.107z M204.226,395.832c-5.162-14.204-9.359-30.379-12.503-47.923
			c14.637-2.022,29.936-3.215,45.565-3.506v99.152C225.377,438.514,213.643,421.746,204.226,395.832z M237.289,329.4
			c-16.402,0.298-32.493,1.564-47.919,3.719c-2.578-18.401-4.061-38.022-4.356-58.25h30.831c2.715,10.47,10.975,18.73,21.444,21.445
			V329.4z M229.891,267.37c0-8.215,6.683-14.899,14.898-14.899c8.215,0,14.898,6.684,14.898,14.899
			c0,8.215-6.684,14.898-14.898,14.898C236.574,282.268,229.891,275.585,229.891,267.37z M281.251,437.157
			c2.418-3.366,4.835-7.191,7.227-11.548c1.993-3.631,0.666-8.19-2.965-10.184c-3.631-1.994-8.19-0.667-10.184,2.965
			c-4.456,8.115-12.718,20.692-23.04,25.145v-99.132c15.607,0.29,30.889,1.479,45.509,3.494
			c-2.087,11.688-4.621,22.782-7.593,33.011c-1.155,3.978,1.132,8.139,5.109,9.295c3.979,1.156,8.139-1.131,9.295-5.109
			c3.176-10.931,5.855-22.597,8.043-34.823c13.125,2.391,25.575,5.47,37.092,9.172C334.354,396.124,310.068,424.144,281.251,437.157
			z M321.383,427.803c7.717-7.235,14.968-15.613,21.634-25.097c8.168-11.621,15.153-24.461,20.882-38.219
			c8.063,3.189,15.522,6.72,22.267,10.565C369.126,397.369,346.938,415.553,321.383,427.803z M394.791,362.724
			c-7.722-4.479-16.306-8.568-25.612-12.229c7.978-23.43,12.517-49.06,13.236-75.625h40.001
			C421.072,307.092,411.119,337.127,394.791,362.724z"/>
	</g>
</g>
<g>
	<g>
		<path d="M18.991,309.372c-0.699-3.783-1.312-7.642-1.819-11.47c-0.544-4.106-4.313-6.989-8.422-6.448
			c-4.105,0.545-6.992,4.315-6.447,8.421c0.541,4.079,1.193,8.191,1.938,12.222c0.668,3.613,3.82,6.139,7.366,6.139
			c0.452,0,0.911-0.041,1.372-0.126C17.053,317.357,19.744,313.444,18.991,309.372z"/>
	</g>
</g>
<g>
	<g>
		<path d="M31.648,352.986c-1.436-3.573-2.801-7.234-4.057-10.883c-1.347-3.916-5.612-6.001-9.532-4.651
			c-3.917,1.348-5.999,5.616-4.651,9.532c1.338,3.889,2.793,7.791,4.323,11.597c1.177,2.926,3.989,4.704,6.962,4.704
			c0.931,0,1.878-0.175,2.795-0.543C31.332,361.197,33.194,356.828,31.648,352.986z"/>
	</g>
</g>
<g>
	<g>
		<path d="M35.73,155.1c-3.706-1.845-8.211-0.336-10.057,3.373c-1.836,3.691-3.6,7.471-5.239,11.234
			c-1.655,3.797,0.081,8.217,3.879,9.872c0.976,0.425,1.992,0.626,2.992,0.626c2.893,0,5.649-1.684,6.879-4.505
			c1.54-3.532,3.195-7.079,4.919-10.544C40.948,161.448,39.438,156.946,35.73,155.1z"/>
	</g>
</g>
<g>
	<g>
		<path d="M134.459,57.28c-2.045-3.604-6.623-4.864-10.225-2.821c-3.568,2.025-7.132,4.168-10.591,6.37
			c-3.495,2.223-4.526,6.859-2.303,10.354c1.431,2.246,3.857,3.474,6.337,3.474c1.377,0,2.771-0.379,4.018-1.173
			c3.249-2.066,6.594-4.079,9.944-5.979C135.241,65.46,136.504,60.882,134.459,57.28z"/>
	</g>
</g>
<g>
	<g>
		<path d="M52.677,393.208c-2.11-3.216-4.169-6.533-6.12-9.86c-2.096-3.574-6.691-4.771-10.265-2.675
			c-3.572,2.096-4.771,6.691-2.675,10.264c2.079,3.543,4.272,7.076,6.52,10.501c1.44,2.194,3.835,3.386,6.277,3.386
			c1.412,0,2.84-0.398,4.108-1.231C53.985,401.321,54.95,396.671,52.677,393.208z"/>
	</g>
</g>
<g>
	<g>
		<path d="M8.627,244.521c-4.137-0.254-7.698,2.872-7.963,7.006c-0.262,4.094-0.424,8.252-0.48,12.359
			c-0.058,4.142,3.253,7.546,7.395,7.603c0.035,0.001,0.07,0.001,0.106,0.001c4.094,0,7.44-3.29,7.497-7.396
			c0.054-3.858,0.205-7.765,0.451-11.609C15.898,248.351,12.761,244.786,8.627,244.521z"/>
	</g>
</g>
<g>
	<g>
		<path d="M17.693,198.475c-3.996-1.07-8.113,1.3-9.186,5.301c-1.067,3.98-2.044,8.028-2.902,12.03
			c-0.87,4.05,1.709,8.038,5.759,8.907c0.53,0.114,1.059,0.168,1.581,0.168c3.46,0,6.57-2.409,7.325-5.928
			c0.806-3.756,1.723-7.555,2.725-11.291C24.068,203.661,21.694,199.548,17.693,198.475z"/>
	</g>
</g>
<g>
	<g>
		<path d="M199.576,492.552c-3.777-0.754-7.588-1.616-11.326-2.563c-4.018-1.02-8.095,1.415-9.111,5.43
			c-1.017,4.016,1.414,8.095,5.43,9.111c3.984,1.009,8.046,1.928,12.072,2.731c0.495,0.099,0.989,0.147,1.476,0.147
			c3.503,0,6.635-2.467,7.347-6.033C206.274,497.313,203.639,493.363,199.576,492.552z"/>
	</g>
</g>
<g>
	<g>
		<path d="M61.965,116.158c-3.269-2.538-7.983-1.947-10.524,1.326c-2.522,3.25-4.993,6.604-7.343,9.969
			c-2.372,3.395-1.541,8.07,1.855,10.442c1.308,0.914,2.805,1.352,4.287,1.352c2.367,0,4.697-1.118,6.155-3.206
			c2.207-3.159,4.526-6.308,6.896-9.36C65.831,123.409,65.237,118.698,61.965,116.158z"/>
	</g>
</g>
<g>
	<g>
		<path d="M177.938,39.67c-1.292-3.936-5.528-6.08-9.465-4.789c-3.904,1.281-7.827,2.679-11.659,4.157
			c-3.865,1.49-5.79,5.832-4.3,9.696c1.149,2.977,3.989,4.803,7.001,4.803c0.896,0,1.809-0.162,2.696-0.504
			c3.596-1.386,7.275-2.698,10.938-3.899C177.085,47.843,179.228,43.606,177.938,39.67z"/>
	</g>
</g>
<g>
	<g>
		<path d="M81.225,428.541c-2.703-2.74-5.375-5.592-7.944-8.476c-2.754-3.092-7.494-3.367-10.589-0.611
			c-3.093,2.755-3.366,7.497-0.61,10.589c2.735,3.07,5.581,6.107,8.459,9.027c1.468,1.489,3.404,2.235,5.342,2.235
			c1.901,0,3.804-0.718,5.265-2.158C84.098,436.239,84.132,431.491,81.225,428.541z"/>
	</g>
</g>
<g>
	<g>
		<path d="M156.127,479.26c-3.414-1.431-6.831-2.967-10.172-4.563c0.667-2.477,1.028-5.078,1.028-7.763
			c0-16.486-13.413-29.899-29.899-29.899c-16.485,0-29.897,13.413-29.897,29.899c0,16.486,13.412,29.898,29.897,29.898
			c8.408,0,16.012-3.494,21.45-9.1c0.163,0.094,0.315,0.2,0.487,0.283c3.708,1.78,7.513,3.49,11.309,5.081
			c0.947,0.397,1.929,0.585,2.895,0.585c2.932,0,5.716-1.73,6.92-4.603C161.746,485.255,159.947,480.861,156.127,479.26z
			 M117.084,481.832c-8.215,0-14.897-6.683-14.897-14.898c0-8.215,6.683-14.899,14.897-14.899c8.216,0,14.899,6.684,14.899,14.899
			C131.983,475.148,125.3,481.832,117.084,481.832z"/>
	</g>
</g>
<g>
	<g>
		<path d="M95.309,83.125c-2.713-3.132-7.449-3.472-10.579-0.76c-3.103,2.686-6.179,5.488-9.145,8.33
			c-2.992,2.865-3.094,7.613-0.229,10.604c1.473,1.538,3.444,2.312,5.417,2.312c1.865,0,3.733-0.691,5.188-2.084
			c2.785-2.669,5.675-5.3,8.587-7.823C97.68,90.993,98.02,86.256,95.309,83.125z"/>
	</g>
</g>
<g>
	<g>
		<path d="M487.656,238.029c-6.441-54.234-30.673-104.424-69.887-143.639c-39.2-39.2-89.367-63.427-143.578-69.88
			C271.646,10.588,259.435,0,244.789,0c-14.639,0-26.846,10.579-29.398,24.492c-3.968,0.476-7.971,1.051-11.905,1.72
			c-4.083,0.695-6.83,4.568-6.136,8.651c0.622,3.658,3.795,6.244,7.385,6.244c0.417,0,0.841-0.035,1.267-0.107
			c3.462-0.589,6.979-1.093,10.474-1.522c4.003,11.8,15.179,20.319,28.314,20.319c13.133,0,24.307-8.515,28.313-20.311
			c50.613,6.184,97.436,28.886,134.061,65.51c36.598,36.598,59.293,83.378,65.497,133.949
			c-11.967,3.908-20.639,15.169-20.639,28.424c0,13.254,8.672,24.515,20.639,28.423c-6.204,50.57-28.899,97.352-65.497,133.95
			C363.791,473.114,306.126,497,244.789,497c-3.862,0-7.771-0.097-11.617-0.289c-4.148-0.204-7.658,2.982-7.864,7.118
			c-0.205,4.137,2.982,7.658,7.118,7.864c4.094,0.204,8.254,0.307,12.363,0.307c65.344,0,126.775-25.446,172.98-71.651
			c39.214-39.215,63.445-89.405,69.887-143.64c13.75-2.684,24.161-14.816,24.161-29.339
			C511.817,252.846,501.406,240.713,487.656,238.029z M244.789,44.797c-8.215,0-14.898-6.684-14.898-14.899
			c0-8.215,6.683-14.898,14.898-14.898c8.215,0,14.898,6.684,14.898,14.898C259.687,38.113,253.004,44.797,244.789,44.797z
			 M481.919,282.268c-8.215,0-14.898-6.683-14.898-14.898c0-8.215,6.683-14.899,14.898-14.899c8.215,0,14.898,6.684,14.898,14.899
			C496.817,275.585,490.134,282.268,481.919,282.268z"/>
	</g>
</g>
<g>
</g>
<g>
</g>
<g>
</g>
<g>
</g>
<g>
</g>
<g>
</g>
<g>
</g>
<g>
</g>
<g>
</g>
<g>
</g>
<g>
</g>
<g>
</g>
<g>
</g>
<g>
</g>
<g>
</g>
</svg>
