<?xml version="1.0" encoding="iso-8859-1"?>
<!-- Generator: Adobe Illustrator 19.0.0, SVG Export Plug-In . SVG Version: 6.00 Build 0)  -->
<svg version="1.1" id="Capa_1" xmlns="http://www.w3.org/2000/svg" xmlns:xlink="http://www.w3.org/1999/xlink" x="0px" y="0px"
	 viewBox="0 0 512.03 512.03" style="enable-background:new 0 0 512.03 512.03;" xml:space="preserve">
<g transform="translate(0 -1)">
	<g>
		<g>
			<path d="M136.548,358.296c9.425-0.001,17.065-7.642,17.067-17.067v-24.467c-0.011-9.421-7.646-17.056-17.067-17.067h-51.2
				c-9.421,0.011-17.056,7.645-17.067,17.067v18.067c0.011,8.603,6.415,15.857,14.95,16.933l51.2,6.4
				C135.134,358.251,135.841,358.295,136.548,358.296z M85.348,316.763h51.2l0.017,24.467h-0.017l-51.2-6.4V316.763z"/>
			<path d="M426.681,299.696h-51.2c-9.421,0.011-17.056,7.645-17.067,17.067v24.467c0.001,9.425,7.642,17.065,17.067,17.067
				c0.708-0.001,1.414-0.046,2.116-0.133l51.2-6.4c8.535-1.077,14.94-8.33,14.95-16.933v-18.067
				C443.737,307.342,436.103,299.707,426.681,299.696z M426.681,334.83l-51.2,6.4v-24.467h51.2V334.83z"/>
			<path d="M486.415,205.83h-17.067c-9.421,0.011-17.056,7.646-17.067,17.067v17.067c0.007,5.772,2.936,11.149,7.782,14.285
				l-11.316,11.315h-0.049l-51.068-89.371c-10.657-18.591-30.438-30.069-51.867-30.096h-49.456l-19.056-57.374
				c11.365-9.032,15.773-24.264,10.99-37.969s-17.711-22.887-32.228-22.887s-27.445,9.181-32.228,22.887s-0.374,28.938,10.99,37.969
				l-19.056,57.374h-49.456c-21.429,0.027-41.21,11.505-51.867,30.096L63.33,265.563h-0.049l-11.316-11.315
				c4.846-3.136,7.775-8.512,7.782-14.285v-17.067c-0.011-9.421-7.645-17.056-17.067-17.067H25.615c-14.138,0-25.6,11.462-25.6,25.6
				s11.461,25.6,25.6,25.6h5l12.853,12.853c-10.96,5.92-17.809,17.357-17.853,29.814v128c0.046,15.521,10.569,29.053,25.6,32.922
				v26.812c0.015,14.132,11.468,25.585,25.6,25.6h42.667c14.132-0.015,25.585-11.468,25.6-25.6v-25.6h221.867v25.6
				c0.015,14.132,11.468,25.585,25.6,25.6h42.667c14.132-0.015,25.585-11.468,25.6-25.6v-26.812
				c15.031-3.869,25.554-17.4,25.6-32.922v-128c-0.044-12.457-6.893-23.894-17.853-29.814l12.853-12.853h5
				c14.138,0,25.6-11.462,25.6-25.6S500.553,205.83,486.415,205.83z M25.615,239.963c-4.713,0-8.533-3.82-8.533-8.533
				s3.82-8.533,8.533-8.533h17.067l0.009,17.067H25.615z M256.015,45.146c9.426,0,17.067,7.641,17.067,17.067
				S265.44,79.28,256.015,79.28s-17.067-7.641-17.067-17.067C238.959,52.792,246.594,45.157,256.015,45.146z M250.421,95.781
				c3.691,0.754,7.496,0.754,11.187,0l16.715,50.316h-44.617L250.421,95.781z M129.215,184.658
				c7.614-13.278,21.744-21.475,37.05-21.495h179.5c15.306,0.02,29.436,8.217,37.05,21.495l46.225,80.905H82.99L129.215,184.658z
				 M128.015,487.43c-0.005,4.711-3.822,8.529-8.533,8.533H76.815c-4.711-0.005-8.529-3.822-8.533-8.533v-25.6h59.733V487.43z
				 M443.748,487.43c-0.005,4.711-3.822,8.529-8.533,8.533h-42.667c-4.711-0.005-8.529-3.822-8.533-8.533v-25.6h59.733V487.43z
				 M469.348,299.696v128c-0.011,9.421-7.646,17.056-17.067,17.067H59.748c-9.421-0.011-17.056-7.645-17.067-17.067v-128
				c0.011-9.421,7.645-17.056,17.067-17.067h392.533C461.703,282.64,469.337,290.275,469.348,299.696z M486.415,239.963h-17.067
				v-17.067h17.067c4.713,0,8.533,3.82,8.533,8.533S491.128,239.963,486.415,239.963z"/>
			<path d="M384.015,376.496h-256c-14.138,0-25.6,11.462-25.6,25.6c0,14.138,11.461,25.6,25.6,25.6h256
				c14.138,0,25.6-11.462,25.6-25.6C409.615,387.958,398.153,376.496,384.015,376.496z M170.681,410.63h-42.667
				c-4.713,0-8.533-3.82-8.533-8.533s3.82-8.533,8.533-8.533h42.667V410.63z M332.815,410.63H187.748v-17.067h145.067V410.63z
				 M384.015,410.63h-34.133v-17.067h34.133c4.713,0,8.533,3.821,8.533,8.533S388.728,410.63,384.015,410.63z"/>
			<path d="M159.648,203.329l8.533-8.533c3.281-3.341,3.256-8.701-0.054-12.012c-3.311-3.311-8.671-3.335-12.012-0.054l-8.533,8.533
				c-2.188,2.149-3.055,5.307-2.27,8.271c0.785,2.965,3.1,5.28,6.065,6.065C154.341,206.384,157.499,205.517,159.648,203.329z"/>
			<path d="M190.248,191.263l-34.133,34.133c-2.188,2.149-3.055,5.307-2.27,8.271c0.785,2.965,3.1,5.28,6.065,6.065
				c2.965,0.785,6.122-0.082,8.271-2.27l34.133-34.133c3.281-3.341,3.256-8.701-0.054-12.012S193.589,187.982,190.248,191.263z"/>
			<path d="M175.377,111.013c4.234-2.073,5.986-7.187,3.913-11.421c-11.478-23.596-11.478-51.158,0-74.754
				c2.068-4.234,0.315-9.344-3.917-11.417c-4.232-2.072-9.342-0.323-11.417,3.908c-13.789,28.335-13.789,61.436,0,89.771
				C166.03,111.334,171.143,113.086,175.377,111.013z"/>
			<path d="M208.26,99.146c4.093-2.327,5.527-7.529,3.205-11.625c-8.867-15.707-8.867-34.909,0-50.617
				c1.12-1.967,1.412-4.298,0.812-6.48c-0.6-2.182-2.044-4.036-4.012-5.153c-1.966-1.123-4.298-1.417-6.481-0.817
				c-2.183,0.601-4.037,2.046-5.152,4.017c-11.844,20.935-11.844,46.548,0,67.483C198.963,100.044,204.167,101.473,208.26,99.146z"
				/>
			<path d="M299.753,94.001c0.6,2.182,2.044,4.036,4.012,5.153c1.967,1.12,4.298,1.411,6.48,0.811s4.036-2.043,5.153-4.011
				c11.844-20.935,11.844-46.548,0-67.483c-2.332-4.09-7.536-5.518-11.628-3.191c-4.093,2.327-5.527,7.529-3.205,11.625
				c8.867,15.707,8.867,34.909,0,50.617C299.445,89.488,299.152,91.819,299.753,94.001z"/>
			<path d="M336.656,111.009c2.032,0.996,4.377,1.144,6.518,0.411c2.141-0.733,3.903-2.287,4.899-4.319
				c13.789-28.335,13.789-61.436,0-89.771c-2.087-4.209-7.183-5.941-11.402-3.875c-4.219,2.066-5.976,7.153-3.931,11.382
				c11.478,23.596,11.478,51.158,0,74.754C330.671,103.826,332.424,108.936,336.656,111.009z"/>
			<path d="M142.901,122.591c4.273-1.955,6.161-6.997,4.223-11.277c-7.033-15.41-10.641-32.161-10.575-49.1
				c-0.066-16.939,3.542-33.69,10.575-49.1c1.959-4.285,0.075-9.346-4.208-11.308c-2.057-0.946-4.406-1.034-6.528-0.244
				c-2.122,0.79-3.842,2.392-4.78,4.453c-8.06,17.635-12.197,36.81-12.125,56.2c-0.072,19.39,4.065,38.565,12.125,56.2
				C133.578,122.678,138.628,124.546,142.901,122.591z"/>
			<path d="M375.481,62.213c0.066,16.939-3.542,33.69-10.575,49.1c-1.959,4.285-0.075,9.346,4.208,11.308
				c2.057,0.943,4.405,1.029,6.526,0.24c2.121-0.789,3.841-2.389,4.782-4.448c8.06-17.635,12.197-36.81,12.125-56.2
				c0.072-19.39-4.065-38.564-12.125-56.2c-1.261-2.784-3.914-4.681-6.956-4.974s-6.008,1.065-7.776,3.558
				c-1.768,2.493-2.067,5.741-0.784,8.515C371.94,28.522,375.548,45.274,375.481,62.213z"/>
		</g>
	</g>
</g>
<g>
</g>
<g>
</g>
<g>
</g>
<g>
</g>
<g>
</g>
<g>
</g>
<g>
</g>
<g>
</g>
<g>
</g>
<g>
</g>
<g>
</g>
<g>
</g>
<g>
</g>
<g>
</g>
<g>
</g>
</svg>
