<?xml version="1.0" encoding="iso-8859-1"?>
<!-- Generator: Adobe Illustrator 19.0.0, SVG Export Plug-In . SVG Version: 6.00 Build 0)  -->
<svg version="1.1" id="Capa_1" xmlns="http://www.w3.org/2000/svg" xmlns:xlink="http://www.w3.org/1999/xlink" x="0px" y="0px"
	 viewBox="0 0 392.362 392.362" style="enable-background:new 0 0 392.362 392.362;" xml:space="preserve">
<g>
	<g>
		<path d="M74.832,334.417c-0.125-0.112-0.254-0.219-0.388-0.321c-4-3.32-8-6.88-11.68-10.56c-2.338-2.313-6.102-2.313-8.44,0
			c-2.34,2.343-2.34,6.137,0,8.48c4,4,8,7.72,12.48,11.32c2.463,2.217,6.257,2.017,8.474-0.446
			C77.494,340.427,77.295,336.634,74.832,334.417z"/>
	</g>
</g>
<g>
	<g>
		<path d="M12.038,156.534c-3.128-1.093-6.55,0.558-7.643,3.686c-0.162,0.464-0.267,0.947-0.311,1.436
			c-1.2,5.48-2.12,11.04-2.8,16.6c-0.428,3.252,1.834,6.245,5.08,6.72h0.76c3.037,0.002,5.596-2.265,5.96-5.28
			c0.64-5.2,1.52-10.44,2.64-15.52C16.817,161.048,15.166,157.626,12.038,156.534z"/>
	</g>
</g>
<g>
	<g>
		<path d="M45.004,302.616c-3.08-4.24-6-8.64-8.68-13.12c-1.694-2.848-5.376-3.784-8.224-2.09c-0.005,0.003-0.011,0.006-0.016,0.01
			c-2.848,1.694-3.784,5.376-2.09,8.224c0.003,0.005,0.006,0.011,0.01,0.016c2.88,4.8,6,9.52,9.32,14.04
			c2.047,2.606,5.819,3.058,8.425,1.011C46.228,308.759,46.777,305.224,45.004,302.616z"/>
	</g>
</g>
<g>
	<g>
		<path d="M24.084,264.776c-1.92-4.84-3.68-9.84-5.16-14.88c-0.923-3.182-4.252-5.014-7.434-4.091
			c-0.056,0.016-0.111,0.033-0.166,0.051c-3.149,0.962-4.934,4.283-4,7.44c1.6,5.36,3.44,10.72,5.52,16
			c1.248,3.104,4.776,4.608,7.88,3.36S25.332,267.88,24.084,264.776z"/>
	</g>
</g>
<g>
	<g>
		<path d="M27.664,115.396c-2.96-1.491-6.569-0.3-8.06,2.66c-2.52,5-4.84,10.16-6.88,15.4c-1.203,3.07,0.298,6.536,3.36,7.76
			c3.081,1.22,6.568-0.288,7.788-3.369c0.004-0.01,0.008-0.021,0.012-0.031c1.92-4.88,4-9.72,6.44-14.36
			C31.815,120.496,30.624,116.888,27.664,115.396z"/>
	</g>
</g>
<g>
	<g>
		<path d="M13.286,223.033c-0.001-0.005-0.001-0.011-0.002-0.016c-0.64-5.2-1.08-10.48-1.28-15.68
			c-0.121-3.314-2.906-5.901-6.22-5.78c-3.314,0.121-5.901,2.906-5.78,6.22c0,5.6,0.64,11.24,1.36,16.8
			c0.41,2.908,2.865,5.091,5.8,5.16h0.92C11.372,229.322,13.701,226.32,13.286,223.033z"/>
	</g>
</g>
<g>
	<g>
		<path d="M172.464,22.876c-0.32-3.314-3.266-5.74-6.58-5.42c-5.56,0.56-11.16,1.36-16.68,2.44c-3.314,0.309-5.749,3.246-5.44,6.56
			c0.309,3.314,3.246,5.749,6.56,5.44l-0.04-0.16h1.16c5.16-1,10.4-1.76,15.6-2.28C170.358,29.136,172.784,26.19,172.464,22.876z"/>
	</g>
</g>
<g>
	<g>
		<path d="M53.724,79.096c-2.496-2.209-6.311-1.976-8.52,0.52c-3.68,4.2-7.2,8.64-10.48,13.2c-1.944,2.683-1.345,6.435,1.339,8.379
			c1.019,0.738,2.243,1.137,3.501,1.141v0.08c1.931,0.007,3.747-0.916,4.88-2.48c3.08-4.24,6.36-8.4,9.8-12.32
			C56.453,85.12,56.22,81.306,53.724,79.096z"/>
	</g>
</g>
<g>
	<g>
		<path d="M212.004,18.456c-5.52-0.84-11.16-1.44-16.76-1.76c-3.314-0.199-6.161,2.326-6.36,5.64
			c-0.199,3.314,2.326,6.161,5.64,6.36c5.28,0.4,10.52,0.96,15.68,1.76h0.92c3.314,0.243,6.197-2.246,6.44-5.56
			C217.807,21.583,215.318,18.699,212.004,18.456z"/>
	</g>
</g>
<g>
	<g>
		<path d="M87.799,50.507c-1.877-2.549-5.411-3.202-8.075-1.491c-4.6,3.16-9.12,6.6-13.44,10.16c-2.552,2.121-2.901,5.908-0.78,8.46
			c2.121,2.552,5.908,2.901,8.46,0.78c4-3.36,8.24-6.56,12.56-9.52C89.193,56.932,89.763,53.176,87.799,50.507z"/>
	</g>
</g>
<g>
	<g>
		<g>
			<path d="M107.924,45.656c-0.02,0-0.039-0.004-0.059-0.004c-0.021,0-0.041,0.004-0.061,0.004H107.924z"/>
			<path d="M129.081,31.602c-0.877-3.195-4.179-5.075-7.375-4.197c-0.281,0.077-0.556,0.175-0.823,0.292
				c-5.24,1.92-10.48,4-15.52,6.52c-3.005,1.398-4.307,4.967-2.909,7.971c0.98,2.107,3.09,3.453,5.41,3.465
				c0.866-0.017,1.719-0.218,2.499-0.596c4.72-2.24,9.6-4.28,14.52-6.08C128.08,38.099,129.959,34.797,129.081,31.602z"/>
		</g>
	</g>
</g>
<g>
	<g>
		<path d="M201.624,378.676c-0.21-3.314-3.066-5.83-6.38-5.62c-5.24,0.4-10.52,0.52-15.76,0.36c-3.314-0.088-6.072,2.526-6.16,5.84
			s2.526,6.072,5.84,6.16h5.08c4,0,8,0,11.76-0.36C199.318,384.847,201.834,381.99,201.624,378.676z"/>
	</g>
</g>
<g>
	<g>
		<path d="M358.664,239.676c-3.214-0.817-6.483,1.126-7.3,4.34c-1.28,5.08-2.84,10.12-4.6,15.04c-1.043,3.09,0.573,6.448,3.64,7.56
			c3.119,1.119,6.555-0.503,7.674-3.622c0.002-0.006,0.004-0.012,0.006-0.018c1.88-5.28,3.52-10.68,4.92-16
			C363.822,243.762,361.878,240.494,358.664,239.676z"/>
	</g>
</g>
<g>
	<g>
		<path d="M366.324,170.976c-0.92-5.52-2.08-11.08-3.48-16.48c-0.958-3.172-4.307-4.967-7.479-4.008
			c-3.007,0.908-4.804,3.982-4.121,7.048c1.32,5.04,2.4,10.24,3.28,15.4c0.517,2.827,2.966,4.89,5.84,4.92h1
			C364.633,177.325,366.853,174.246,366.324,170.976z"/>
	</g>
</g>
<g>
	<g>
		<path d="M391.825,102.109c-0.282-0.613-0.668-1.172-1.141-1.652l-10.6-11.04c-1.518-1.516-3.749-2.07-5.8-1.44l-19.12,5.8
			l-22.4-23.76l50.28-28c2.93-1.349,4.211-4.818,2.861-7.747c-0.282-0.613-0.668-1.172-1.141-1.652l-14.12-14.12
			c-1.539-1.479-3.763-2.001-5.8-1.36l-63.72,19.28l-21.44-22.76c-5.464-6.318-14.359-8.429-22.08-5.24h-0.36
			c-5.821,2.396-10.444,7.019-12.84,12.84c-0.604,1.52-1.033,3.103-1.28,4.72l-2.44-0.84c-3.159-1.016-6.544,0.721-7.56,3.88
			c-1.016,3.159,0.721,6.544,3.88,7.56c3.08,1,6.16,2.12,9.24,3.28c0.927,1.45,2.014,2.792,3.24,4l22.6,21.44l-6.48,21.4
			c-63.378-45.209-151.405-30.48-196.614,32.898S38.51,271,101.888,316.209c63.378,45.209,151.405,30.48,196.614-32.898
			c36.052-50.541,34.794-118.718-3.098-167.894l10.24-18.48l23.76,22.4l-5.72,18.92c-0.689,2.079-0.147,4.369,1.4,5.92
			c0,0,11.72,11.6,12,12c2.771,1.606,6.32,0.662,7.927-2.109c0.025-0.043,0.05-0.087,0.073-0.131l15.64-28.68l28.24-15.4
			C391.894,108.507,393.175,105.038,391.825,102.109z M93.164,110.016c24.115-24.104,56.824-37.631,90.92-37.6
			c2.667,0,5.333,0.08,8,0.24c22.68,20.92,16,40,0.8,57.2c-8.97,9.513-18.593,18.388-28.8,26.56c-14.76,12.56-28.52,24.28-33.72,36
			c-6.16,13.92-1.64,26.52,23.24,37.52c12.44,5.52,19.2,9.8,21.84,13.04c0.039,0.047,0.077,0.08,0.116,0.109
			c-0.082,0.025-0.165,0.052-0.276,0.091c-6.024,2.294-12.436,3.394-18.88,3.24c-30.16,1.28-51.64-18-68.32-32.92
			c-12-10.68-21.96-19.56-32.32-19.64C57.476,162.257,70.795,132.401,93.164,110.016z M313.124,201.136h0.04
			c-0.018,55.75-35.857,105.176-88.84,122.52c-1.488-9.375,0.246-18.978,4.92-27.24c6.338-10.179,14.47-19.123,24-26.4
			c36.92-30.8,39-48,40.6-61.24c1-8.36,1.76-14.6,18.28-23.68C312.787,190.417,313.121,195.774,313.124,201.136z M305.684,157.856
			c1.788,5.036,3.257,10.18,4.4,15.4c-25.16,12.8-26.28,21.92-27.8,34.36c-1.36,11.2-3.12,25.84-36.48,53.68
			c-10.685,8.175-19.77,18.25-26.8,29.72c-6.129,10.834-8.253,23.478-6,35.72c-69.389,15.862-138.498-27.53-154.36-96.918
			c-1.814-7.936-2.872-16.026-3.16-24.162c6.36,0,14.6,7.56,24.72,16.56c18.32,16.36,41.76,37.24,76.68,36
			c8.228,0.142,16.397-1.41,24-4.56c3.205-1.417,5.631-4.164,6.64-7.52c0.852-3.743-0.229-7.664-2.88-10.44
			c-3.76-4.6-12-10.04-26.16-16.36c-16.92-7.48-20.6-14.76-17.28-22.2c4-9.36,16.88-20,30.56-32c10.66-8.615,20.698-17.971,30.04-28
			c16.72-19.04,25.32-39.8,8.32-62.52c18.893,3.862,36.669,11.944,52,23.64l-9.2,30.36c-0.679,2.08-0.139,4.365,1.4,5.92
			c0,0,14.92,14.8,15.4,15.08c2.771,1.606,6.32,0.662,7.927-2.109c0.025-0.043,0.049-0.087,0.073-0.131l11.64-21.04
			C296.235,136.038,301.727,146.646,305.684,157.856z M359.324,113.176l-5.16,2.56c-1.155,0.573-2.085,1.516-2.64,2.68l-2.56,5.2
			l-9.96,18l-2.92-3.2l5.8-19.16c0.676-2.245-0.066-4.675-1.88-6.16l-31.56-29.72c-2.285-2.245-5.957-2.212-8.202,0.073
			c-0.054,0.055-0.106,0.11-0.158,0.167c-0.4,0.44-28.8,51.6-28.8,51.6l-6.2-6.2l19.36-63.8c0.694-2.257-0.05-4.709-1.88-6.2
			l-25.12-23.64c-2.78-2.355-3.704-6.246-2.28-9.6c1.276-2.906,3.606-5.221,6.52-6.48h0.2c3.313-1.279,7.072-0.315,9.36,2.4
			l24,25.36c1.507,1.618,3.803,2.239,5.92,1.6l64-19.32l6.2,6.2l-50.8,27.92c-2.812,1.534-3.848,5.058-2.313,7.869
			c0.024,0.044,0.048,0.087,0.073,0.131c0.24,0.44,30.84,33,30.84,33c1.516,1.604,3.811,2.209,5.92,1.56l19.24-5.8l3,3
			L359.324,113.176z"/>
	</g>
</g>
<g>
	<g>
		<path d="M343.87,281.844c-0.087-0.051-0.176-0.101-0.266-0.147c-2.867-1.499-6.406-0.455-8,2.36c-2.52,4.6-5.28,9.12-8.24,13.44
			c-1.911,2.717-1.257,6.469,1.46,8.38c2.717,1.911,6.469,1.257,8.38-1.46c3.12-4.64,6.08-9.48,8.8-14.36
			C347.683,287.199,346.727,283.522,343.87,281.844z"/>
	</g>
</g>
<g>
	<g>
		<path d="M362.844,194.256c-3.313-0.045-6.036,2.604-6.082,5.917c-0.001,0.081-0.001,0.162,0.002,0.243v0.68
			c0,5.24-0.24,10.52-0.72,15.76c-0.3,3.3,2.131,6.219,5.431,6.519c0.003,0,0.006,0.001,0.009,0.001h0.56
			c3.165,0.03,5.808-2.404,6.04-5.56c0.52-5.56,0.76-11.2,0.76-16.8v-0.8C368.822,196.918,366.142,194.256,362.844,194.256z"/>
	</g>
</g>
<g>
	<g>
		<path d="M152.164,370.416c-5.2-0.88-10.36-2-15.36-3.52c-3.126-1.099-6.551,0.544-7.651,3.67s0.544,6.551,3.67,7.651
			c0.229,0.081,0.464,0.147,0.701,0.2c5.36,1.52,10.88,2.84,16.4,4h1.12c3.314,0.309,6.251-2.126,6.56-5.44
			C157.913,373.663,155.478,370.726,152.164,370.416z"/>
	</g>
</g>
<g>
	<g>
		<path d="M245.001,368.593c-1.085-2.946-4.258-4.558-7.277-3.696v0.16c-4.96,1.64-10.08,3.04-15.16,4
			c-3.236,0.729-5.269,3.944-4.54,7.18c0.729,3.236,3.944,5.269,7.18,4.54c5.44-1.24,10.92-2.76,16.24-4.48
			C244.554,375.151,246.146,371.702,245.001,368.593z"/>
	</g>
</g>
<g>
	<g>
		<path d="M111.004,357.336c-4.76-2.36-9.44-4.92-13.96-7.48c-2.861-1.679-6.541-0.721-8.22,2.14
			c-1.679,2.861-0.721,6.541,2.14,8.22c4.84,2.84,9.84,5.48,14.92,8c3.004,1.414,6.586,0.124,8-2.88
			C115.298,362.332,114.009,358.75,111.004,357.336z"/>
	</g>
</g>
<g>
	<g>
		<path d="M318.379,318.74c-2.404-2.195-6.121-2.073-8.375,0.277h0.04c-3.6,4-7.4,7.52-11.28,11c-2.474,2.209-2.689,6.006-0.48,8.48
			c2.209,2.474,6.006,2.689,8.48,0.48c4-3.72,8.24-7.68,12-11.76C320.999,324.769,320.826,320.974,318.379,318.74z"/>
	</g>
</g>
<g>
	<g>
		<path d="M285.275,348.668c-1.7-2.844-5.384-3.771-8.229-2.071c-0.096,0.057-0.19,0.117-0.282,0.18v-0.16c-4.4,2.8-9,5.44-13.64,8
			c-2.949,1.513-4.113,5.131-2.6,8.08c1.513,2.949,5.131,4.113,8.08,2.6c4.96-2.56,9.88-5.4,14.6-8.4
			C286.048,355.196,286.976,351.512,285.275,348.668z"/>
	</g>
</g>
<g>
</g>
<g>
</g>
<g>
</g>
<g>
</g>
<g>
</g>
<g>
</g>
<g>
</g>
<g>
</g>
<g>
</g>
<g>
</g>
<g>
</g>
<g>
</g>
<g>
</g>
<g>
</g>
<g>
</g>
</svg>
